<?xml version="1.0" encoding="UTF-8" standalone="no"?>
<!DOCTYPE svg PUBLIC "-//W3C//DTD SVG 1.1//EN"
 "http://www.w3.org/Graphics/SVG/1.1/DTD/svg11.dtd">
<!-- Generated by graphviz version 2.43.0 (0)
 -->
<!-- Title: controllers_diagram Pages: 1 -->
<svg width="1503pt" height="1373pt"
 viewBox="0.00 0.00 1502.96 1373.00" xmlns="http://www.w3.org/2000/svg" xmlns:xlink="http://www.w3.org/1999/xlink">
<g id="graph0" class="graph" transform="scale(1 1) rotate(0) translate(4 1369)">
<title>controllers_diagram</title>
<polygon fill="transparent" stroke="transparent" points="-4,4 -4,-1369 1498.96,-1369 1498.96,4 -4,4"/>
<!-- _diagram_info -->
<g id="node1" class="node">
<title>_diagram_info</title>
<text text-anchor="start" x="688" y="-58.6" font-family="Times,serif" font-size="13.00">Controllers diagram</text>
<text text-anchor="start" x="688" y="-45.6" font-family="Times,serif" font-size="13.00">Date: Dec 06 2019 &#45; 21:09</text>
<text text-anchor="start" x="688" y="-32.6" font-family="Times,serif" font-size="13.00">Migration version: 20190917080632</text>
<text text-anchor="start" x="688" y="-19.6" font-family="Times,serif" font-size="13.00">Generated by RailRoady 1.5.3</text>
<text text-anchor="start" x="688" y="-6.6" font-family="Times,serif" font-size="13.00">http://railroady.prestonlee.com</text>
</g>
<!-- ApplicationController -->
<g id="node2" class="node">
<title>ApplicationController</title>
<path fill="none" stroke="black" d="M514.08,-524.57C514.08,-524.57 652.26,-524.57 652.26,-524.57 658.26,-524.57 664.26,-530.57 664.26,-536.57 664.26,-536.57 664.26,-658.57 664.26,-658.57 664.26,-664.57 658.26,-670.57 652.26,-670.57 652.26,-670.57 514.08,-670.57 514.08,-670.57 508.08,-670.57 502.08,-664.57 502.08,-658.57 502.08,-658.57 502.08,-536.57 502.08,-536.57 502.08,-530.57 508.08,-524.57 514.08,-524.57"/>
<text text-anchor="middle" x="583.17" y="-655.37" font-family="Times,serif" font-size="14.00">ApplicationController</text>
<polyline fill="none" stroke="black" points="502.08,-648.57 664.26,-648.57 "/>
<polyline fill="none" stroke="black" points="502.08,-624.57 664.26,-624.57 "/>
<text text-anchor="start" x="510.08" y="-609.37" font-family="Times,serif" font-size="14.00">ensure_login</text>
<text text-anchor="start" x="510.08" y="-595.37" font-family="Times,serif" font-size="14.00">logged_in?</text>
<text text-anchor="start" x="510.08" y="-581.37" font-family="Times,serif" font-size="14.00">logged_in_employee</text>
<text text-anchor="start" x="510.08" y="-567.37" font-family="Times,serif" font-size="14.00">logged_in_employee_role</text>
<text text-anchor="start" x="510.08" y="-553.37" font-family="Times,serif" font-size="14.00">logged_in_store</text>
<polyline fill="none" stroke="black" points="502.08,-546.57 664.26,-546.57 "/>
<text text-anchor="start" x="510.08" y="-531.37" font-family="Times,serif" font-size="14.00">_layout</text>
</g>
<!-- CustomerMeasurementsController -->
<g id="node3" class="node">
<title>CustomerMeasurementsController</title>
<path fill="none" stroke="black" d="M869.52,-666.52C869.52,-666.52 1055.15,-666.52 1055.15,-666.52 1061.15,-666.52 1067.15,-672.52 1067.15,-678.52 1067.15,-678.52 1067.15,-884.52 1067.15,-884.52 1067.15,-890.52 1061.15,-896.52 1055.15,-896.52 1055.15,-896.52 869.52,-896.52 869.52,-896.52 863.52,-896.52 857.52,-890.52 857.52,-884.52 857.52,-884.52 857.52,-678.52 857.52,-678.52 857.52,-672.52 863.52,-666.52 869.52,-666.52"/>
<text text-anchor="middle" x="962.33" y="-881.32" font-family="Times,serif" font-size="14.00">CustomerMeasurementsController</text>
<polyline fill="none" stroke="black" points="857.52,-874.52 1067.15,-874.52 "/>
<text text-anchor="start" x="865.52" y="-859.32" font-family="Times,serif" font-size="14.00">index</text>
<text text-anchor="start" x="865.52" y="-845.32" font-family="Times,serif" font-size="14.00">destroy</text>
<text text-anchor="start" x="865.52" y="-831.32" font-family="Times,serif" font-size="14.00">edit</text>
<text text-anchor="start" x="865.52" y="-817.32" font-family="Times,serif" font-size="14.00">create</text>
<text text-anchor="start" x="865.52" y="-803.32" font-family="Times,serif" font-size="14.00">new</text>
<text text-anchor="start" x="865.52" y="-789.32" font-family="Times,serif" font-size="14.00">show</text>
<text text-anchor="start" x="865.52" y="-775.32" font-family="Times,serif" font-size="14.00">update</text>
<polyline fill="none" stroke="black" points="857.52,-768.52 1067.15,-768.52 "/>
<polyline fill="none" stroke="black" points="857.52,-744.52 1067.15,-744.52 "/>
<text text-anchor="start" x="865.52" y="-729.32" font-family="Times,serif" font-size="14.00">_layout</text>
<text text-anchor="start" x="865.52" y="-715.32" font-family="Times,serif" font-size="14.00">customer_measurement_params</text>
<text text-anchor="start" x="865.52" y="-701.32" font-family="Times,serif" font-size="14.00">set_customer</text>
<text text-anchor="start" x="865.52" y="-687.32" font-family="Times,serif" font-size="14.00">set_customer_measurement</text>
<text text-anchor="start" x="865.52" y="-673.32" font-family="Times,serif" font-size="14.00">set_store</text>
</g>
<!-- ApplicationController&#45;&gt;CustomerMeasurementsController -->
<g id="edge1" class="edge">
<title>ApplicationController&#45;&gt;CustomerMeasurementsController</title>
<path fill="none" stroke="black" d="M664.51,-637.03C720.87,-664.38 796.42,-701.03 857.32,-730.57"/>
</g>
<!-- CustomersController -->
<g id="node4" class="node">
<title>CustomersController</title>
<path fill="none" stroke="black" d="M495.48,-68.5C495.48,-68.5 604.92,-68.5 604.92,-68.5 610.92,-68.5 616.92,-74.5 616.92,-80.5 616.92,-80.5 616.92,-272.5 616.92,-272.5 616.92,-278.5 610.92,-284.5 604.92,-284.5 604.92,-284.5 495.48,-284.5 495.48,-284.5 489.48,-284.5 483.48,-278.5 483.48,-272.5 483.48,-272.5 483.48,-80.5 483.48,-80.5 483.48,-74.5 489.48,-68.5 495.48,-68.5"/>
<text text-anchor="middle" x="550.2" y="-269.3" font-family="Times,serif" font-size="14.00">CustomersController</text>
<polyline fill="none" stroke="black" points="483.48,-262.5 616.92,-262.5 "/>
<text text-anchor="start" x="491.48" y="-247.3" font-family="Times,serif" font-size="14.00">index</text>
<text text-anchor="start" x="491.48" y="-233.3" font-family="Times,serif" font-size="14.00">destroy</text>
<text text-anchor="start" x="491.48" y="-219.3" font-family="Times,serif" font-size="14.00">edit</text>
<text text-anchor="start" x="491.48" y="-205.3" font-family="Times,serif" font-size="14.00">create</text>
<text text-anchor="start" x="491.48" y="-191.3" font-family="Times,serif" font-size="14.00">new</text>
<text text-anchor="start" x="491.48" y="-177.3" font-family="Times,serif" font-size="14.00">show</text>
<text text-anchor="start" x="491.48" y="-163.3" font-family="Times,serif" font-size="14.00">update</text>
<polyline fill="none" stroke="black" points="483.48,-156.5 616.92,-156.5 "/>
<polyline fill="none" stroke="black" points="483.48,-132.5 616.92,-132.5 "/>
<text text-anchor="start" x="491.48" y="-117.3" font-family="Times,serif" font-size="14.00">_layout</text>
<text text-anchor="start" x="491.48" y="-103.3" font-family="Times,serif" font-size="14.00">customer_params</text>
<text text-anchor="start" x="491.48" y="-89.3" font-family="Times,serif" font-size="14.00">set_customer</text>
<text text-anchor="start" x="491.48" y="-75.3" font-family="Times,serif" font-size="14.00">set_store</text>
</g>
<!-- ApplicationController&#45;&gt;CustomersController -->
<g id="edge2" class="edge">
<title>ApplicationController&#45;&gt;CustomersController</title>
<path fill="none" stroke="black" d="M577.43,-524.23C572.25,-458.02 564.55,-359.74 558.66,-284.54"/>
</g>
<!-- EmployeesController -->
<g id="node5" class="node">
<title>EmployeesController</title>
<path fill="none" stroke="black" d="M178.34,-729.54C178.34,-729.54 290.1,-729.54 290.1,-729.54 296.1,-729.54 302.1,-735.54 302.1,-741.54 302.1,-741.54 302.1,-933.54 302.1,-933.54 302.1,-939.54 296.1,-945.54 290.1,-945.54 290.1,-945.54 178.34,-945.54 178.34,-945.54 172.34,-945.54 166.34,-939.54 166.34,-933.54 166.34,-933.54 166.34,-741.54 166.34,-741.54 166.34,-735.54 172.34,-729.54 178.34,-729.54"/>
<text text-anchor="middle" x="234.22" y="-930.34" font-family="Times,serif" font-size="14.00">EmployeesController</text>
<polyline fill="none" stroke="black" points="166.34,-923.54 302.1,-923.54 "/>
<text text-anchor="start" x="174.34" y="-908.34" font-family="Times,serif" font-size="14.00">index</text>
<text text-anchor="start" x="174.34" y="-894.34" font-family="Times,serif" font-size="14.00">destroy</text>
<text text-anchor="start" x="174.34" y="-880.34" font-family="Times,serif" font-size="14.00">edit</text>
<text text-anchor="start" x="174.34" y="-866.34" font-family="Times,serif" font-size="14.00">create</text>
<text text-anchor="start" x="174.34" y="-852.34" font-family="Times,serif" font-size="14.00">new</text>
<text text-anchor="start" x="174.34" y="-838.34" font-family="Times,serif" font-size="14.00">show</text>
<text text-anchor="start" x="174.34" y="-824.34" font-family="Times,serif" font-size="14.00">update</text>
<polyline fill="none" stroke="black" points="166.34,-817.54 302.1,-817.54 "/>
<polyline fill="none" stroke="black" points="166.34,-793.54 302.1,-793.54 "/>
<text text-anchor="start" x="174.34" y="-778.34" font-family="Times,serif" font-size="14.00">_layout</text>
<text text-anchor="start" x="174.34" y="-764.34" font-family="Times,serif" font-size="14.00">employee_params</text>
<text text-anchor="start" x="174.34" y="-750.34" font-family="Times,serif" font-size="14.00">set_employee</text>
<text text-anchor="start" x="174.34" y="-736.34" font-family="Times,serif" font-size="14.00">set_store</text>
</g>
<!-- ApplicationController&#45;&gt;EmployeesController -->
<g id="edge3" class="edge">
<title>ApplicationController&#45;&gt;EmployeesController</title>
<path fill="none" stroke="black" d="M501.8,-653.53C441.18,-695.22 359.36,-751.49 302.21,-790.78"/>
</g>
<!-- OrderMeasurementsController -->
<g id="node6" class="node">
<title>OrderMeasurementsController</title>
<path fill="none" stroke="black" d="M673.67,-862.3C673.67,-862.3 837.5,-862.3 837.5,-862.3 843.5,-862.3 849.5,-868.3 849.5,-874.3 849.5,-874.3 849.5,-1094.3 849.5,-1094.3 849.5,-1100.3 843.5,-1106.3 837.5,-1106.3 837.5,-1106.3 673.67,-1106.3 673.67,-1106.3 667.67,-1106.3 661.67,-1100.3 661.67,-1094.3 661.67,-1094.3 661.67,-874.3 661.67,-874.3 661.67,-868.3 667.67,-862.3 673.67,-862.3"/>
<text text-anchor="middle" x="755.58" y="-1091.1" font-family="Times,serif" font-size="14.00">OrderMeasurementsController</text>
<polyline fill="none" stroke="black" points="661.67,-1084.3 849.5,-1084.3 "/>
<text text-anchor="start" x="669.67" y="-1069.1" font-family="Times,serif" font-size="14.00">index</text>
<text text-anchor="start" x="669.67" y="-1055.1" font-family="Times,serif" font-size="14.00">destroy</text>
<text text-anchor="start" x="669.67" y="-1041.1" font-family="Times,serif" font-size="14.00">edit</text>
<text text-anchor="start" x="669.67" y="-1027.1" font-family="Times,serif" font-size="14.00">create</text>
<text text-anchor="start" x="669.67" y="-1013.1" font-family="Times,serif" font-size="14.00">new</text>
<text text-anchor="start" x="669.67" y="-999.1" font-family="Times,serif" font-size="14.00">show</text>
<text text-anchor="start" x="669.67" y="-985.1" font-family="Times,serif" font-size="14.00">update</text>
<polyline fill="none" stroke="black" points="661.67,-978.3 849.5,-978.3 "/>
<polyline fill="none" stroke="black" points="661.67,-954.3 849.5,-954.3 "/>
<text text-anchor="start" x="669.67" y="-939.1" font-family="Times,serif" font-size="14.00">_layout</text>
<text text-anchor="start" x="669.67" y="-925.1" font-family="Times,serif" font-size="14.00">order_measurement_params</text>
<text text-anchor="start" x="669.67" y="-911.1" font-family="Times,serif" font-size="14.00">set_customer</text>
<text text-anchor="start" x="669.67" y="-897.1" font-family="Times,serif" font-size="14.00">set_order</text>
<text text-anchor="start" x="669.67" y="-883.1" font-family="Times,serif" font-size="14.00">set_order_measurement</text>
<text text-anchor="start" x="669.67" y="-869.1" font-family="Times,serif" font-size="14.00">set_store</text>
</g>
<!-- ApplicationController&#45;&gt;OrderMeasurementsController -->
<g id="edge4" class="edge">
<title>ApplicationController&#45;&gt;OrderMeasurementsController</title>
<path fill="none" stroke="black" d="M615.81,-670.77C639.82,-724.64 673.03,-799.12 701.05,-861.98"/>
</g>
<!-- OrdersController -->
<g id="node7" class="node">
<title>OrdersController</title>
<path fill="none" stroke="black" d="M425.27,-885.96C425.27,-885.96 512.91,-885.96 512.91,-885.96 518.91,-885.96 524.91,-891.96 524.91,-897.96 524.91,-897.96 524.91,-1103.96 524.91,-1103.96 524.91,-1109.96 518.91,-1115.96 512.91,-1115.96 512.91,-1115.96 425.27,-1115.96 425.27,-1115.96 419.27,-1115.96 413.27,-1109.96 413.27,-1103.96 413.27,-1103.96 413.27,-897.96 413.27,-897.96 413.27,-891.96 419.27,-885.96 425.27,-885.96"/>
<text text-anchor="middle" x="469.09" y="-1100.76" font-family="Times,serif" font-size="14.00">OrdersController</text>
<polyline fill="none" stroke="black" points="413.27,-1093.96 524.91,-1093.96 "/>
<text text-anchor="start" x="421.27" y="-1078.76" font-family="Times,serif" font-size="14.00">index</text>
<text text-anchor="start" x="421.27" y="-1064.76" font-family="Times,serif" font-size="14.00">destroy</text>
<text text-anchor="start" x="421.27" y="-1050.76" font-family="Times,serif" font-size="14.00">edit</text>
<text text-anchor="start" x="421.27" y="-1036.76" font-family="Times,serif" font-size="14.00">create</text>
<text text-anchor="start" x="421.27" y="-1022.76" font-family="Times,serif" font-size="14.00">new</text>
<text text-anchor="start" x="421.27" y="-1008.76" font-family="Times,serif" font-size="14.00">show</text>
<text text-anchor="start" x="421.27" y="-994.76" font-family="Times,serif" font-size="14.00">update</text>
<polyline fill="none" stroke="black" points="413.27,-987.96 524.91,-987.96 "/>
<polyline fill="none" stroke="black" points="413.27,-963.96 524.91,-963.96 "/>
<text text-anchor="start" x="421.27" y="-948.76" font-family="Times,serif" font-size="14.00">_layout</text>
<text text-anchor="start" x="421.27" y="-934.76" font-family="Times,serif" font-size="14.00">order_params</text>
<text text-anchor="start" x="421.27" y="-920.76" font-family="Times,serif" font-size="14.00">set_customer</text>
<text text-anchor="start" x="421.27" y="-906.76" font-family="Times,serif" font-size="14.00">set_order</text>
<text text-anchor="start" x="421.27" y="-892.76" font-family="Times,serif" font-size="14.00">set_store</text>
</g>
<!-- ApplicationController&#45;&gt;OrdersController -->
<g id="edge5" class="edge">
<title>ApplicationController&#45;&gt;OrdersController</title>
<path fill="none" stroke="black" d="M562.51,-670.62C545.56,-730.56 521.26,-816.51 501.68,-885.72"/>
</g>
<!-- SessionsController -->
<g id="node8" class="node">
<title>SessionsController</title>
<path fill="none" stroke="black" d="M114,-497.15C114,-497.15 211.78,-497.15 211.78,-497.15 217.78,-497.15 223.78,-503.15 223.78,-509.15 223.78,-509.15 223.78,-603.15 223.78,-603.15 223.78,-609.15 217.78,-615.15 211.78,-615.15 211.78,-615.15 114,-615.15 114,-615.15 108,-615.15 102,-609.15 102,-603.15 102,-603.15 102,-509.15 102,-509.15 102,-503.15 108,-497.15 114,-497.15"/>
<text text-anchor="middle" x="162.89" y="-599.95" font-family="Times,serif" font-size="14.00">SessionsController</text>
<polyline fill="none" stroke="black" points="102,-593.15 223.78,-593.15 "/>
<text text-anchor="start" x="110" y="-577.95" font-family="Times,serif" font-size="14.00">create</text>
<text text-anchor="start" x="110" y="-563.95" font-family="Times,serif" font-size="14.00">destroy</text>
<text text-anchor="start" x="110" y="-549.95" font-family="Times,serif" font-size="14.00">new</text>
<polyline fill="none" stroke="black" points="102,-543.15 223.78,-543.15 "/>
<polyline fill="none" stroke="black" points="102,-519.15 223.78,-519.15 "/>
<text text-anchor="start" x="110" y="-503.95" font-family="Times,serif" font-size="14.00">_layout</text>
</g>
<!-- ApplicationController&#45;&gt;SessionsController -->
<g id="edge6" class="edge">
<title>ApplicationController&#45;&gt;SessionsController</title>
<path fill="none" stroke="black" d="M501.64,-589.54C420.36,-581.53 297.37,-569.41 224.09,-562.18"/>
</g>
<!-- ShirtStylesController -->
<g id="node9" class="node">
<title>ShirtStylesController</title>
<path fill="none" stroke="black" d="M936.54,-372.2C936.54,-372.2 1047.54,-372.2 1047.54,-372.2 1053.54,-372.2 1059.54,-378.2 1059.54,-384.2 1059.54,-384.2 1059.54,-604.2 1059.54,-604.2 1059.54,-610.2 1053.54,-616.2 1047.54,-616.2 1047.54,-616.2 936.54,-616.2 936.54,-616.2 930.54,-616.2 924.54,-610.2 924.54,-604.2 924.54,-604.2 924.54,-384.2 924.54,-384.2 924.54,-378.2 930.54,-372.2 936.54,-372.2"/>
<text text-anchor="middle" x="992.04" y="-601" font-family="Times,serif" font-size="14.00">ShirtStylesController</text>
<polyline fill="none" stroke="black" points="924.54,-594.2 1059.54,-594.2 "/>
<text text-anchor="start" x="932.54" y="-579" font-family="Times,serif" font-size="14.00">index</text>
<text text-anchor="start" x="932.54" y="-565" font-family="Times,serif" font-size="14.00">destroy</text>
<text text-anchor="start" x="932.54" y="-551" font-family="Times,serif" font-size="14.00">edit</text>
<text text-anchor="start" x="932.54" y="-537" font-family="Times,serif" font-size="14.00">create</text>
<text text-anchor="start" x="932.54" y="-523" font-family="Times,serif" font-size="14.00">new</text>
<text text-anchor="start" x="932.54" y="-509" font-family="Times,serif" font-size="14.00">show</text>
<text text-anchor="start" x="932.54" y="-495" font-family="Times,serif" font-size="14.00">update</text>
<polyline fill="none" stroke="black" points="924.54,-488.2 1059.54,-488.2 "/>
<polyline fill="none" stroke="black" points="924.54,-464.2 1059.54,-464.2 "/>
<text text-anchor="start" x="932.54" y="-449" font-family="Times,serif" font-size="14.00">_layout</text>
<text text-anchor="start" x="932.54" y="-435" font-family="Times,serif" font-size="14.00">set_customer</text>
<text text-anchor="start" x="932.54" y="-421" font-family="Times,serif" font-size="14.00">set_order</text>
<text text-anchor="start" x="932.54" y="-407" font-family="Times,serif" font-size="14.00">set_shirt_style</text>
<text text-anchor="start" x="932.54" y="-393" font-family="Times,serif" font-size="14.00">set_store</text>
<text text-anchor="start" x="932.54" y="-379" font-family="Times,serif" font-size="14.00">shirt_style_params</text>
</g>
<!-- ApplicationController&#45;&gt;ShirtStylesController -->
<g id="edge7" class="edge">
<title>ApplicationController&#45;&gt;ShirtStylesController</title>
<path fill="none" stroke="black" d="M664.44,-577.03C740.59,-557.77 853.1,-529.33 924.46,-511.29"/>
</g>
<!-- StoresController -->
<g id="node10" class="node">
<title>StoresController</title>
<path fill="none" stroke="black" d="M246.35,-196.42C246.35,-196.42 330.9,-196.42 330.9,-196.42 336.9,-196.42 342.9,-202.42 342.9,-208.42 342.9,-208.42 342.9,-386.42 342.9,-386.42 342.9,-392.42 336.9,-398.42 330.9,-398.42 330.9,-398.42 246.35,-398.42 246.35,-398.42 240.35,-398.42 234.35,-392.42 234.35,-386.42 234.35,-386.42 234.35,-208.42 234.35,-208.42 234.35,-202.42 240.35,-196.42 246.35,-196.42"/>
<text text-anchor="middle" x="288.62" y="-383.22" font-family="Times,serif" font-size="14.00">StoresController</text>
<polyline fill="none" stroke="black" points="234.35,-376.42 342.9,-376.42 "/>
<text text-anchor="start" x="242.35" y="-361.22" font-family="Times,serif" font-size="14.00">index</text>
<text text-anchor="start" x="242.35" y="-347.22" font-family="Times,serif" font-size="14.00">destroy</text>
<text text-anchor="start" x="242.35" y="-333.22" font-family="Times,serif" font-size="14.00">edit</text>
<text text-anchor="start" x="242.35" y="-319.22" font-family="Times,serif" font-size="14.00">create</text>
<text text-anchor="start" x="242.35" y="-305.22" font-family="Times,serif" font-size="14.00">new</text>
<text text-anchor="start" x="242.35" y="-291.22" font-family="Times,serif" font-size="14.00">show</text>
<text text-anchor="start" x="242.35" y="-277.22" font-family="Times,serif" font-size="14.00">update</text>
<polyline fill="none" stroke="black" points="234.35,-270.42 342.9,-270.42 "/>
<polyline fill="none" stroke="black" points="234.35,-246.42 342.9,-246.42 "/>
<text text-anchor="start" x="242.35" y="-231.22" font-family="Times,serif" font-size="14.00">_layout</text>
<text text-anchor="start" x="242.35" y="-217.22" font-family="Times,serif" font-size="14.00">set_store</text>
<text text-anchor="start" x="242.35" y="-203.22" font-family="Times,serif" font-size="14.00">store_params</text>
</g>
<!-- ApplicationController&#45;&gt;StoresController -->
<g id="edge8" class="edge">
<title>ApplicationController&#45;&gt;StoresController</title>
<path fill="none" stroke="black" d="M511.5,-524.53C459.56,-471.61 390.41,-401.15 342.99,-352.82"/>
</g>
<!-- TrouserStylesController -->
<g id="node11" class="node">
<title>TrouserStylesController</title>
<path fill="none" stroke="black" d="M765.63,-133.42C765.63,-133.42 892.45,-133.42 892.45,-133.42 898.45,-133.42 904.45,-139.42 904.45,-145.42 904.45,-145.42 904.45,-365.42 904.45,-365.42 904.45,-371.42 898.45,-377.42 892.45,-377.42 892.45,-377.42 765.63,-377.42 765.63,-377.42 759.63,-377.42 753.63,-371.42 753.63,-365.42 753.63,-365.42 753.63,-145.42 753.63,-145.42 753.63,-139.42 759.63,-133.42 765.63,-133.42"/>
<text text-anchor="middle" x="829.04" y="-362.22" font-family="Times,serif" font-size="14.00">TrouserStylesController</text>
<polyline fill="none" stroke="black" points="753.63,-355.42 904.45,-355.42 "/>
<text text-anchor="start" x="761.63" y="-340.22" font-family="Times,serif" font-size="14.00">index</text>
<text text-anchor="start" x="761.63" y="-326.22" font-family="Times,serif" font-size="14.00">destroy</text>
<text text-anchor="start" x="761.63" y="-312.22" font-family="Times,serif" font-size="14.00">edit</text>
<text text-anchor="start" x="761.63" y="-298.22" font-family="Times,serif" font-size="14.00">create</text>
<text text-anchor="start" x="761.63" y="-284.22" font-family="Times,serif" font-size="14.00">new</text>
<text text-anchor="start" x="761.63" y="-270.22" font-family="Times,serif" font-size="14.00">show</text>
<text text-anchor="start" x="761.63" y="-256.22" font-family="Times,serif" font-size="14.00">update</text>
<polyline fill="none" stroke="black" points="753.63,-249.42 904.45,-249.42 "/>
<polyline fill="none" stroke="black" points="753.63,-225.42 904.45,-225.42 "/>
<text text-anchor="start" x="761.63" y="-210.22" font-family="Times,serif" font-size="14.00">_layout</text>
<text text-anchor="start" x="761.63" y="-196.22" font-family="Times,serif" font-size="14.00">set_customer</text>
<text text-anchor="start" x="761.63" y="-182.22" font-family="Times,serif" font-size="14.00">set_order</text>
<text text-anchor="start" x="761.63" y="-168.22" font-family="Times,serif" font-size="14.00">set_store</text>
<text text-anchor="start" x="761.63" y="-154.22" font-family="Times,serif" font-size="14.00">set_trouser_style</text>
<text text-anchor="start" x="761.63" y="-140.22" font-family="Times,serif" font-size="14.00">trouser_style_params</text>
</g>
<!-- ApplicationController&#45;&gt;TrouserStylesController -->
<g id="edge9" class="edge">
<title>ApplicationController&#45;&gt;TrouserStylesController</title>
<path fill="none" stroke="black" d="M635.92,-524.17C670.21,-476.46 715.45,-413.5 753.52,-360.51"/>
</g>
<!-- ActiveStorage::BaseController -->
<g id="node12" class="node">
<title>ActiveStorage::BaseController</title>
<path fill="none" stroke="black" d="M12,-374.5C12,-374.5 176.62,-374.5 176.62,-374.5 182.62,-374.5 188.62,-380.5 188.62,-386.5 188.62,-386.5 188.62,-454.5 188.62,-454.5 188.62,-460.5 182.62,-466.5 176.62,-466.5 176.62,-466.5 12,-466.5 12,-466.5 6,-466.5 0,-460.5 0,-454.5 0,-454.5 0,-386.5 0,-386.5 0,-380.5 6,-374.5 12,-374.5"/>
<text text-anchor="middle" x="94.31" y="-451.3" font-family="Times,serif" font-size="14.00">ActiveStorage::BaseController</text>
<polyline fill="none" stroke="black" points="0,-444.5 188.62,-444.5 "/>
<polyline fill="none" stroke="black" points="0,-420.5 188.62,-420.5 "/>
<polyline fill="none" stroke="black" points="0,-396.5 188.62,-396.5 "/>
<text text-anchor="start" x="8" y="-381.3" font-family="Times,serif" font-size="14.00">_layout</text>
</g>
<!-- ActiveStorage::BlobsController -->
<g id="node13" class="node">
<title>ActiveStorage::BlobsController</title>
<path fill="none" stroke="black" d="M12,-238.5C12,-238.5 182.08,-238.5 182.08,-238.5 188.08,-238.5 194.08,-244.5 194.08,-250.5 194.08,-250.5 194.08,-316.5 194.08,-316.5 194.08,-322.5 188.08,-328.5 182.08,-328.5 182.08,-328.5 12,-328.5 12,-328.5 6,-328.5 0,-322.5 0,-316.5 0,-316.5 0,-250.5 0,-250.5 0,-244.5 6,-238.5 12,-238.5"/>
<text text-anchor="middle" x="97.04" y="-313.3" font-family="Times,serif" font-size="14.00">ActiveStorage::BlobsController</text>
<polyline fill="none" stroke="black" points="0,-306.5 194.08,-306.5 "/>
<text text-anchor="start" x="8" y="-291.3" font-family="Times,serif" font-size="14.00">show</text>
<polyline fill="none" stroke="black" points="0,-284.5 194.08,-284.5 "/>
<polyline fill="none" stroke="black" points="0,-260.5 194.08,-260.5 "/>
<text text-anchor="start" x="8" y="-245.3" font-family="Times,serif" font-size="14.00">_layout</text>
</g>
<!-- ActiveStorage::DirectUploadsController -->
<g id="node14" class="node">
<title>ActiveStorage::DirectUploadsController</title>
<path fill="none" stroke="black" d="M964,-0.5C964,-0.5 1183.05,-0.5 1183.05,-0.5 1189.05,-0.5 1195.05,-6.5 1195.05,-12.5 1195.05,-12.5 1195.05,-106.5 1195.05,-106.5 1195.05,-112.5 1189.05,-118.5 1183.05,-118.5 1183.05,-118.5 964,-118.5 964,-118.5 958,-118.5 952,-112.5 952,-106.5 952,-106.5 952,-12.5 952,-12.5 952,-6.5 958,-0.5 964,-0.5"/>
<text text-anchor="middle" x="1073.52" y="-103.3" font-family="Times,serif" font-size="14.00">ActiveStorage::DirectUploadsController</text>
<polyline fill="none" stroke="black" points="952,-96.5 1195.05,-96.5 "/>
<text text-anchor="start" x="960" y="-81.3" font-family="Times,serif" font-size="14.00">create</text>
<polyline fill="none" stroke="black" points="952,-74.5 1195.05,-74.5 "/>
<polyline fill="none" stroke="black" points="952,-50.5 1195.05,-50.5 "/>
<text text-anchor="start" x="960" y="-35.3" font-family="Times,serif" font-size="14.00">_layout</text>
<text text-anchor="start" x="960" y="-21.3" font-family="Times,serif" font-size="14.00">blob_args</text>
<text text-anchor="start" x="960" y="-7.3" font-family="Times,serif" font-size="14.00">direct_upload_json</text>
</g>
<!-- ActiveStorage::DiskController -->
<g id="node15" class="node">
<title>ActiveStorage::DiskController</title>
<path fill="none" stroke="black" d="M522,-1190.5C522,-1190.5 685.86,-1190.5 685.86,-1190.5 691.86,-1190.5 697.86,-1196.5 697.86,-1202.5 697.86,-1202.5 697.86,-1352.5 697.86,-1352.5 697.86,-1358.5 691.86,-1364.5 685.86,-1364.5 685.86,-1364.5 522,-1364.5 522,-1364.5 516,-1364.5 510,-1358.5 510,-1352.5 510,-1352.5 510,-1202.5 510,-1202.5 510,-1196.5 516,-1190.5 522,-1190.5"/>
<text text-anchor="middle" x="603.93" y="-1349.3" font-family="Times,serif" font-size="14.00">ActiveStorage::DiskController</text>
<polyline fill="none" stroke="black" points="510,-1342.5 697.86,-1342.5 "/>
<text text-anchor="start" x="518" y="-1327.3" font-family="Times,serif" font-size="14.00">show</text>
<text text-anchor="start" x="518" y="-1313.3" font-family="Times,serif" font-size="14.00">update</text>
<polyline fill="none" stroke="black" points="510,-1306.5 697.86,-1306.5 "/>
<polyline fill="none" stroke="black" points="510,-1282.5 697.86,-1282.5 "/>
<text text-anchor="start" x="518" y="-1267.3" font-family="Times,serif" font-size="14.00">_layout</text>
<text text-anchor="start" x="518" y="-1253.3" font-family="Times,serif" font-size="14.00">acceptable_content?</text>
<text text-anchor="start" x="518" y="-1239.3" font-family="Times,serif" font-size="14.00">decode_verified_key</text>
<text text-anchor="start" x="518" y="-1225.3" font-family="Times,serif" font-size="14.00">decode_verified_token</text>
<text text-anchor="start" x="518" y="-1211.3" font-family="Times,serif" font-size="14.00">disk_service</text>
<text text-anchor="start" x="518" y="-1197.3" font-family="Times,serif" font-size="14.00">serve_file</text>
</g>
<!-- ActiveStorage::RepresentationsController -->
<g id="node16" class="node">
<title>ActiveStorage::RepresentationsController</title>
<path fill="none" stroke="black" d="M46,-68.5C46,-68.5 272.83,-68.5 272.83,-68.5 278.83,-68.5 284.83,-74.5 284.83,-80.5 284.83,-80.5 284.83,-146.5 284.83,-146.5 284.83,-152.5 278.83,-158.5 272.83,-158.5 272.83,-158.5 46,-158.5 46,-158.5 40,-158.5 34,-152.5 34,-146.5 34,-146.5 34,-80.5 34,-80.5 34,-74.5 40,-68.5 46,-68.5"/>
<text text-anchor="middle" x="159.41" y="-143.3" font-family="Times,serif" font-size="14.00">ActiveStorage::RepresentationsController</text>
<polyline fill="none" stroke="black" points="34,-136.5 284.83,-136.5 "/>
<text text-anchor="start" x="42" y="-121.3" font-family="Times,serif" font-size="14.00">show</text>
<polyline fill="none" stroke="black" points="34,-114.5 284.83,-114.5 "/>
<polyline fill="none" stroke="black" points="34,-90.5 284.83,-90.5 "/>
<text text-anchor="start" x="42" y="-75.3" font-family="Times,serif" font-size="14.00">_layout</text>
</g>
<!-- ActionMailbox::BaseController -->
<g id="node17" class="node">
<title>ActionMailbox::BaseController</title>
<path fill="none" stroke="black" d="M182,-1020.5C182,-1020.5 352.08,-1020.5 352.08,-1020.5 358.08,-1020.5 364.08,-1026.5 364.08,-1032.5 364.08,-1032.5 364.08,-1156.5 364.08,-1156.5 364.08,-1162.5 358.08,-1168.5 352.08,-1168.5 352.08,-1168.5 182,-1168.5 182,-1168.5 176,-1168.5 170,-1162.5 170,-1156.5 170,-1156.5 170,-1032.5 170,-1032.5 170,-1026.5 176,-1020.5 182,-1020.5"/>
<text text-anchor="middle" x="267.04" y="-1153.3" font-family="Times,serif" font-size="14.00">ActionMailbox::BaseController</text>
<polyline fill="none" stroke="black" points="170,-1146.5 364.08,-1146.5 "/>
<polyline fill="none" stroke="black" points="170,-1122.5 364.08,-1122.5 "/>
<polyline fill="none" stroke="black" points="170,-1098.5 364.08,-1098.5 "/>
<text text-anchor="start" x="178" y="-1083.3" font-family="Times,serif" font-size="14.00">_layout</text>
<text text-anchor="start" x="178" y="-1069.3" font-family="Times,serif" font-size="14.00">authenticate_by_password</text>
<text text-anchor="start" x="178" y="-1055.3" font-family="Times,serif" font-size="14.00">ensure_configured</text>
<text text-anchor="start" x="178" y="-1041.3" font-family="Times,serif" font-size="14.00">ingress_name</text>
<text text-anchor="start" x="178" y="-1027.3" font-family="Times,serif" font-size="14.00">password</text>
</g>
<!-- ActionMailbox::Ingresses::Mailgun::InboundEmailsController -->
<g id="node18" class="node">
<title>ActionMailbox::Ingresses::Mailgun::InboundEmailsController</title>
<path fill="none" stroke="black" d="M964,-170.5C964,-170.5 1307.51,-170.5 1307.51,-170.5 1313.51,-170.5 1319.51,-176.5 1319.51,-182.5 1319.51,-182.5 1319.51,-290.5 1319.51,-290.5 1319.51,-296.5 1313.51,-302.5 1307.51,-302.5 1307.51,-302.5 964,-302.5 964,-302.5 958,-302.5 952,-296.5 952,-290.5 952,-290.5 952,-182.5 952,-182.5 952,-176.5 958,-170.5 964,-170.5"/>
<text text-anchor="middle" x="1135.76" y="-287.3" font-family="Times,serif" font-size="14.00">ActionMailbox::Ingresses::Mailgun::InboundEmailsController</text>
<polyline fill="none" stroke="black" points="952,-280.5 1319.51,-280.5 "/>
<text text-anchor="start" x="960" y="-265.3" font-family="Times,serif" font-size="14.00">create</text>
<polyline fill="none" stroke="black" points="952,-258.5 1319.51,-258.5 "/>
<polyline fill="none" stroke="black" points="952,-234.5 1319.51,-234.5 "/>
<text text-anchor="start" x="960" y="-219.3" font-family="Times,serif" font-size="14.00">_layout</text>
<text text-anchor="start" x="960" y="-205.3" font-family="Times,serif" font-size="14.00">authenticate</text>
<text text-anchor="start" x="960" y="-191.3" font-family="Times,serif" font-size="14.00">authenticated?</text>
<text text-anchor="start" x="960" y="-177.3" font-family="Times,serif" font-size="14.00">key</text>
</g>
<!-- ActionMailbox::Ingresses::Mandrill::InboundEmailsController -->
<g id="node19" class="node">
<title>ActionMailbox::Ingresses::Mandrill::InboundEmailsController</title>
<path fill="none" stroke="black" d="M930,-952.5C930,-952.5 1275.06,-952.5 1275.06,-952.5 1281.06,-952.5 1287.06,-958.5 1287.06,-964.5 1287.06,-964.5 1287.06,-1100.5 1287.06,-1100.5 1287.06,-1106.5 1281.06,-1112.5 1275.06,-1112.5 1275.06,-1112.5 930,-1112.5 930,-1112.5 924,-1112.5 918,-1106.5 918,-1100.5 918,-1100.5 918,-964.5 918,-964.5 918,-958.5 924,-952.5 930,-952.5"/>
<text text-anchor="middle" x="1102.53" y="-1097.3" font-family="Times,serif" font-size="14.00">ActionMailbox::Ingresses::Mandrill::InboundEmailsController</text>
<polyline fill="none" stroke="black" points="918,-1090.5 1287.06,-1090.5 "/>
<text text-anchor="start" x="926" y="-1075.3" font-family="Times,serif" font-size="14.00">create</text>
<polyline fill="none" stroke="black" points="918,-1068.5 1287.06,-1068.5 "/>
<polyline fill="none" stroke="black" points="918,-1044.5 1287.06,-1044.5 "/>
<text text-anchor="start" x="926" y="-1029.3" font-family="Times,serif" font-size="14.00">_layout</text>
<text text-anchor="start" x="926" y="-1015.3" font-family="Times,serif" font-size="14.00">authenticate</text>
<text text-anchor="start" x="926" y="-1001.3" font-family="Times,serif" font-size="14.00">authenticated?</text>
<text text-anchor="start" x="926" y="-987.3" font-family="Times,serif" font-size="14.00">events</text>
<text text-anchor="start" x="926" y="-973.3" font-family="Times,serif" font-size="14.00">key</text>
<text text-anchor="start" x="926" y="-959.3" font-family="Times,serif" font-size="14.00">raw_emails</text>
</g>
<!-- ActionMailbox::Ingresses::Postmark::InboundEmailsController -->
<g id="node20" class="node">
<title>ActionMailbox::Ingresses::Postmark::InboundEmailsController</title>
<path fill="none" stroke="black" d="M1134,-714.5C1134,-714.5 1482.96,-714.5 1482.96,-714.5 1488.96,-714.5 1494.96,-720.5 1494.96,-726.5 1494.96,-726.5 1494.96,-792.5 1494.96,-792.5 1494.96,-798.5 1488.96,-804.5 1482.96,-804.5 1482.96,-804.5 1134,-804.5 1134,-804.5 1128,-804.5 1122,-798.5 1122,-792.5 1122,-792.5 1122,-726.5 1122,-726.5 1122,-720.5 1128,-714.5 1134,-714.5"/>
<text text-anchor="middle" x="1308.48" y="-789.3" font-family="Times,serif" font-size="14.00">ActionMailbox::Ingresses::Postmark::InboundEmailsController</text>
<polyline fill="none" stroke="black" points="1122,-782.5 1494.96,-782.5 "/>
<text text-anchor="start" x="1130" y="-767.3" font-family="Times,serif" font-size="14.00">create</text>
<polyline fill="none" stroke="black" points="1122,-760.5 1494.96,-760.5 "/>
<polyline fill="none" stroke="black" points="1122,-736.5 1494.96,-736.5 "/>
<text text-anchor="start" x="1130" y="-721.3" font-family="Times,serif" font-size="14.00">_layout</text>
</g>
<!-- ActionMailbox::Ingresses::Relay::InboundEmailsController -->
<g id="node21" class="node">
<title>ActionMailbox::Ingresses::Relay::InboundEmailsController</title>
<path fill="none" stroke="black" d="M1134,-1156.5C1134,-1156.5 1462.72,-1156.5 1462.72,-1156.5 1468.72,-1156.5 1474.72,-1162.5 1474.72,-1168.5 1474.72,-1168.5 1474.72,-1248.5 1474.72,-1248.5 1474.72,-1254.5 1468.72,-1260.5 1462.72,-1260.5 1462.72,-1260.5 1134,-1260.5 1134,-1260.5 1128,-1260.5 1122,-1254.5 1122,-1248.5 1122,-1248.5 1122,-1168.5 1122,-1168.5 1122,-1162.5 1128,-1156.5 1134,-1156.5"/>
<text text-anchor="middle" x="1298.36" y="-1245.3" font-family="Times,serif" font-size="14.00">ActionMailbox::Ingresses::Relay::InboundEmailsController</text>
<polyline fill="none" stroke="black" points="1122,-1238.5 1474.72,-1238.5 "/>
<text text-anchor="start" x="1130" y="-1223.3" font-family="Times,serif" font-size="14.00">create</text>
<polyline fill="none" stroke="black" points="1122,-1216.5 1474.72,-1216.5 "/>
<polyline fill="none" stroke="black" points="1122,-1192.5 1474.72,-1192.5 "/>
<text text-anchor="start" x="1130" y="-1177.3" font-family="Times,serif" font-size="14.00">_layout</text>
<text text-anchor="start" x="1130" y="-1163.3" font-family="Times,serif" font-size="14.00">require_valid_rfc822_message</text>
</g>
<!-- ActionMailbox::Ingresses::Sendgrid::InboundEmailsController -->
<g id="node22" class="node">
<title>ActionMailbox::Ingresses::Sendgrid::InboundEmailsController</title>
<path fill="none" stroke="black" d="M1134,-578.5C1134,-578.5 1480.62,-578.5 1480.62,-578.5 1486.62,-578.5 1492.62,-584.5 1492.62,-590.5 1492.62,-590.5 1492.62,-656.5 1492.62,-656.5 1492.62,-662.5 1486.62,-668.5 1480.62,-668.5 1480.62,-668.5 1134,-668.5 1134,-668.5 1128,-668.5 1122,-662.5 1122,-656.5 1122,-656.5 1122,-590.5 1122,-590.5 1122,-584.5 1128,-578.5 1134,-578.5"/>
<text text-anchor="middle" x="1307.31" y="-653.3" font-family="Times,serif" font-size="14.00">ActionMailbox::Ingresses::Sendgrid::InboundEmailsController</text>
<polyline fill="none" stroke="black" points="1122,-646.5 1492.62,-646.5 "/>
<text text-anchor="start" x="1130" y="-631.3" font-family="Times,serif" font-size="14.00">create</text>
<polyline fill="none" stroke="black" points="1122,-624.5 1492.62,-624.5 "/>
<polyline fill="none" stroke="black" points="1122,-600.5 1492.62,-600.5 "/>
<text text-anchor="start" x="1130" y="-585.3" font-family="Times,serif" font-size="14.00">_layout</text>
</g>
<!-- Rails::Conductor::ActionMailbox::InboundEmailsController -->
<g id="node23" class="node">
<title>Rails::Conductor::ActionMailbox::InboundEmailsController</title>
<path fill="none" stroke="black" d="M1134,-374.5C1134,-374.5 1465.86,-374.5 1465.86,-374.5 1471.86,-374.5 1477.86,-380.5 1477.86,-386.5 1477.86,-386.5 1477.86,-522.5 1477.86,-522.5 1477.86,-528.5 1471.86,-534.5 1465.86,-534.5 1465.86,-534.5 1134,-534.5 1134,-534.5 1128,-534.5 1122,-528.5 1122,-522.5 1122,-522.5 1122,-386.5 1122,-386.5 1122,-380.5 1128,-374.5 1134,-374.5"/>
<text text-anchor="middle" x="1299.93" y="-519.3" font-family="Times,serif" font-size="14.00">Rails::Conductor::ActionMailbox::InboundEmailsController</text>
<polyline fill="none" stroke="black" points="1122,-512.5 1477.86,-512.5 "/>
<text text-anchor="start" x="1130" y="-497.3" font-family="Times,serif" font-size="14.00">create</text>
<text text-anchor="start" x="1130" y="-483.3" font-family="Times,serif" font-size="14.00">index</text>
<text text-anchor="start" x="1130" y="-469.3" font-family="Times,serif" font-size="14.00">new</text>
<text text-anchor="start" x="1130" y="-455.3" font-family="Times,serif" font-size="14.00">show</text>
<polyline fill="none" stroke="black" points="1122,-448.5 1477.86,-448.5 "/>
<polyline fill="none" stroke="black" points="1122,-424.5 1477.86,-424.5 "/>
<text text-anchor="start" x="1130" y="-409.3" font-family="Times,serif" font-size="14.00">_layout</text>
<text text-anchor="start" x="1130" y="-395.3" font-family="Times,serif" font-size="14.00">create_inbound_email</text>
<text text-anchor="start" x="1130" y="-381.3" font-family="Times,serif" font-size="14.00">new_mail</text>
</g>
<!-- Rails::Conductor::ActionMailbox::ReroutesController -->
<g id="node24" class="node">
<title>Rails::Conductor::ActionMailbox::ReroutesController</title>
<path fill="none" stroke="black" d="M760,-1156.5C760,-1156.5 1056.08,-1156.5 1056.08,-1156.5 1062.08,-1156.5 1068.08,-1162.5 1068.08,-1168.5 1068.08,-1168.5 1068.08,-1248.5 1068.08,-1248.5 1068.08,-1254.5 1062.08,-1260.5 1056.08,-1260.5 1056.08,-1260.5 760,-1260.5 760,-1260.5 754,-1260.5 748,-1254.5 748,-1248.5 748,-1248.5 748,-1168.5 748,-1168.5 748,-1162.5 754,-1156.5 760,-1156.5"/>
<text text-anchor="middle" x="908.04" y="-1245.3" font-family="Times,serif" font-size="14.00">Rails::Conductor::ActionMailbox::ReroutesController</text>
<polyline fill="none" stroke="black" points="748,-1238.5 1068.08,-1238.5 "/>
<text text-anchor="start" x="756" y="-1223.3" font-family="Times,serif" font-size="14.00">create</text>
<polyline fill="none" stroke="black" points="748,-1216.5 1068.08,-1216.5 "/>
<polyline fill="none" stroke="black" points="748,-1192.5 1068.08,-1192.5 "/>
<text text-anchor="start" x="756" y="-1177.3" font-family="Times,serif" font-size="14.00">_layout</text>
<text text-anchor="start" x="756" y="-1163.3" font-family="Times,serif" font-size="14.00">reroute</text>
</g>
<!-- Rails::Conductor::BaseController -->
<g id="node25" class="node">
<title>Rails::Conductor::BaseController</title>
<path fill="none" stroke="black" d="M250,-1224.5C250,-1224.5 430.2,-1224.5 430.2,-1224.5 436.2,-1224.5 442.2,-1230.5 442.2,-1236.5 442.2,-1236.5 442.2,-1318.5 442.2,-1318.5 442.2,-1324.5 436.2,-1330.5 430.2,-1330.5 430.2,-1330.5 250,-1330.5 250,-1330.5 244,-1330.5 238,-1324.5 238,-1318.5 238,-1318.5 238,-1236.5 238,-1236.5 238,-1230.5 244,-1224.5 250,-1224.5"/>
<text text-anchor="middle" x="340.1" y="-1315.3" font-family="Times,serif" font-size="14.00">Rails::Conductor::BaseController</text>
<polyline fill="none" stroke="black" points="238,-1308.5 442.2,-1308.5 "/>
<polyline fill="none" stroke="black" points="238,-1284.5 442.2,-1284.5 "/>
<polyline fill="none" stroke="black" points="238,-1260.5 442.2,-1260.5 "/>
<text text-anchor="start" x="246" y="-1245.3" font-family="Times,serif" font-size="14.00">_layout</text>
<text text-anchor="start" x="246" y="-1231.3" font-family="Times,serif" font-size="14.00">ensure_development_env</text>
</g>
</g>
</svg>
