<?xml version="1.0" encoding="UTF-8" standalone="no"?>
<!DOCTYPE svg PUBLIC "-//W3C//DTD SVG 1.1//EN"
 "http://www.w3.org/Graphics/SVG/1.1/DTD/svg11.dtd">
<!-- Generated by graphviz version 2.43.0 (0)
 -->
<!-- Title: models_diagram Pages: 1 -->
<svg width="4078pt" height="369pt"
 viewBox="0.00 0.00 4077.66 369.00" xmlns="http://www.w3.org/2000/svg" xmlns:xlink="http://www.w3.org/1999/xlink">
<g id="graph0" class="graph" transform="scale(1 1) rotate(0) translate(4 365)">
<title>models_diagram</title>
<polygon fill="transparent" stroke="transparent" points="-4,4 -4,-365 4073.66,-365 4073.66,4 -4,4"/>
<!-- _diagram_info -->
<g id="node1" class="node">
<title>_diagram_info</title>
<text text-anchor="start" x="8" y="-346.6" font-family="Times,serif" font-size="13.00">Models diagram</text>
<text text-anchor="start" x="8" y="-333.6" font-family="Times,serif" font-size="13.00">Date: Dec 06 2019 &#45; 21:09</text>
<text text-anchor="start" x="8" y="-320.6" font-family="Times,serif" font-size="13.00">Migration version: 20190917080632</text>
<text text-anchor="start" x="8" y="-307.6" font-family="Times,serif" font-size="13.00">Generated by RailRoady 1.5.3</text>
<text text-anchor="start" x="8" y="-294.6" font-family="Times,serif" font-size="13.00">http://railroady.prestonlee.com</text>
</g>
<!-- ApplicationRecord -->
<g id="node2" class="node">
<title>ApplicationRecord</title>
<ellipse fill="none" stroke="black" cx="302.69" cy="-324.5" rx="77.29" ry="18"/>
<text text-anchor="middle" x="302.69" y="-320.3" font-family="Times,serif" font-size="14.00">ApplicationRecord</text>
</g>
<!-- Customer -->
<g id="node3" class="node">
<title>Customer</title>
<ellipse fill="none" stroke="black" cx="266.69" cy="-162" rx="44.49" ry="18"/>
<text text-anchor="middle" x="266.69" y="-157.8" font-family="Times,serif" font-size="14.00">Customer</text>
</g>
<!-- ApplicationRecord&#45;&gt;Customer -->
<g id="edge3" class="edge">
<title>ApplicationRecord&#45;&gt;Customer</title>
<path fill="none" stroke="black" d="M298.84,-306.32C291.91,-275.43 277.42,-210.85 270.51,-180.05"/>
</g>
<!-- CustomerMeasurement -->
<g id="node4" class="node">
<title>CustomerMeasurement</title>
<ellipse fill="none" stroke="black" cx="272.69" cy="-90" rx="92.75" ry="18"/>
<text text-anchor="middle" x="272.69" y="-85.8" font-family="Times,serif" font-size="14.00">CustomerMeasurement</text>
</g>
<!-- ApplicationRecord&#45;&gt;CustomerMeasurement -->
<g id="edge4" class="edge">
<title>ApplicationRecord&#45;&gt;CustomerMeasurement</title>
<path fill="none" stroke="black" d="M287.64,-306.49C266.27,-281.08 228.15,-230.75 213.69,-180 209.3,-164.61 207.17,-158.61 213.69,-144 220.36,-129.04 233.58,-116.53 245.81,-107.43"/>
</g>
<!-- Employee -->
<g id="node5" class="node">
<title>Employee</title>
<ellipse fill="none" stroke="black" cx="412.69" cy="-162" rx="45.92" ry="18"/>
<text text-anchor="middle" x="412.69" y="-157.8" font-family="Times,serif" font-size="14.00">Employee</text>
</g>
<!-- ApplicationRecord&#45;&gt;Employee -->
<g id="edge5" class="edge">
<title>ApplicationRecord&#45;&gt;Employee</title>
<path fill="none" stroke="black" d="M321.09,-306.86C335.55,-293.13 355.54,-272.62 369.69,-252 385.71,-228.65 398.94,-198.43 406.32,-179.89"/>
</g>
<!-- Order -->
<g id="node6" class="node">
<title>Order</title>
<ellipse fill="none" stroke="black" cx="413.69" cy="-90" rx="30.96" ry="18"/>
<text text-anchor="middle" x="413.69" y="-85.8" font-family="Times,serif" font-size="14.00">Order</text>
</g>
<!-- ApplicationRecord&#45;&gt;Order -->
<g id="edge9" class="edge">
<title>ApplicationRecord&#45;&gt;Order</title>
<path fill="none" stroke="black" d="M334.09,-307.9C374.36,-285.84 442.05,-241.29 467.69,-180 473.86,-165.24 473.88,-158.75 467.69,-144 460.72,-127.41 445.75,-113.39 433.33,-103.95"/>
</g>
<!-- OrderMeasurement -->
<g id="node7" class="node">
<title>OrderMeasurement</title>
<ellipse fill="none" stroke="black" cx="178.69" cy="-18" rx="78.72" ry="18"/>
<text text-anchor="middle" x="178.69" y="-13.8" font-family="Times,serif" font-size="14.00">OrderMeasurement</text>
</g>
<!-- ApplicationRecord&#45;&gt;OrderMeasurement -->
<g id="edge10" class="edge">
<title>ApplicationRecord&#45;&gt;OrderMeasurement</title>
<path fill="none" stroke="black" d="M269.85,-308.13C245.88,-295.64 213.84,-276.16 191.69,-252 167.23,-225.33 162.87,-215 153.69,-180 141.5,-133.56 140.48,-118.68 151.69,-72 154.77,-59.15 161.52,-45.9 167.5,-35.86"/>
</g>
<!-- ShirtStyle -->
<g id="node8" class="node">
<title>ShirtStyle</title>
<ellipse fill="none" stroke="black" cx="339.69" cy="-18" rx="45.47" ry="18"/>
<text text-anchor="middle" x="339.69" y="-13.8" font-family="Times,serif" font-size="14.00">ShirtStyle</text>
</g>
<!-- ApplicationRecord&#45;&gt;ShirtStyle -->
<g id="edge11" class="edge">
<title>ApplicationRecord&#45;&gt;ShirtStyle</title>
<path fill="none" stroke="black" d="M281.56,-306.93C230.9,-265.19 111,-153.28 170.69,-72 178.65,-61.16 254.7,-40.37 302.03,-28.3"/>
</g>
<!-- Store -->
<g id="node9" class="node">
<title>Store</title>
<ellipse fill="none" stroke="black" cx="331.69" cy="-234" rx="28.55" ry="18"/>
<text text-anchor="middle" x="331.69" y="-229.8" font-family="Times,serif" font-size="14.00">Store</text>
</g>
<!-- ApplicationRecord&#45;&gt;Store -->
<g id="edge15" class="edge">
<title>ApplicationRecord&#45;&gt;Store</title>
<path fill="none" stroke="black" d="M308.28,-306.44C313.45,-290.66 321.08,-267.37 326.21,-251.71"/>
</g>
<!-- TrouserStyle -->
<g id="node10" class="node">
<title>TrouserStyle</title>
<ellipse fill="none" stroke="black" cx="468.69" cy="-18" rx="55.46" ry="18"/>
<text text-anchor="middle" x="468.69" y="-13.8" font-family="Times,serif" font-size="14.00">TrouserStyle</text>
</g>
<!-- ApplicationRecord&#45;&gt;TrouserStyle -->
<g id="edge16" class="edge">
<title>ApplicationRecord&#45;&gt;TrouserStyle</title>
<path fill="none" stroke="black" d="M338.82,-308.42C375.57,-292.57 429.38,-267.78 445.69,-252 471.84,-226.69 475.75,-215.28 484.69,-180 497.66,-128.81 482.95,-65.98 474.22,-36.21"/>
</g>
<!-- Customer&#45;&gt;CustomerMeasurement -->
<g id="edge1" class="edge">
<title>Customer&#45;&gt;CustomerMeasurement</title>
<path fill="none" stroke="#bb8909" d="M268.86,-135.64C269.4,-129.35 269.98,-122.61 270.52,-116.32"/>
<ellipse fill="none" stroke="#bb8909" cx="268.51" cy="-139.71" rx="4" ry="4"/>
<ellipse fill="#bb8909" stroke="#bb8909" cx="270.88" cy="-112.09" rx="4" ry="4"/>
</g>
<!-- Customer&#45;&gt;Order -->
<g id="edge2" class="edge">
<title>Customer&#45;&gt;Order</title>
<path fill="none" stroke="#4c46a9" d="M301.8,-144.28C325.94,-132.78 357.77,-117.63 381.3,-106.42"/>
<ellipse fill="none" stroke="#4c46a9" cx="297.95" cy="-146.11" rx="4" ry="4"/>
<polygon fill="#4c46a9" stroke="#4c46a9" points="381.49,-106.33 392.45,-106.1 386,-104.18 390.51,-102.03 390.51,-102.03 390.51,-102.03 386,-104.18 388.58,-97.97 381.49,-106.33 381.49,-106.33"/>
</g>
<!-- Order&#45;&gt;OrderMeasurement -->
<g id="edge6" class="edge">
<title>Order&#45;&gt;OrderMeasurement</title>
<path fill="none" stroke="#72edb8" d="M382.56,-74.95C379.91,-73.9 377.27,-72.91 374.69,-72 330.59,-56.52 279.61,-42.86 240.69,-33.29"/>
<ellipse fill="none" stroke="#72edb8" cx="386.7" cy="-76.66" rx="4" ry="4"/>
<ellipse fill="#72edb8" stroke="#72edb8" cx="236.46" cy="-32.26" rx="4" ry="4"/>
</g>
<!-- Order&#45;&gt;ShirtStyle -->
<g id="edge7" class="edge">
<title>Order&#45;&gt;ShirtStyle</title>
<path fill="none" stroke="#1a8fdc" d="M391.96,-68.44C383.08,-60.05 372.78,-50.31 363.69,-41.7"/>
<ellipse fill="none" stroke="#1a8fdc" cx="395.09" cy="-71.41" rx="4" ry="4"/>
<polygon fill="#1a8fdc" stroke="#1a8fdc" points="363.65,-41.67 359.48,-31.53 360.02,-38.23 356.39,-34.8 356.39,-34.8 356.39,-34.8 360.02,-38.23 353.29,-38.07 363.65,-41.67 363.65,-41.67"/>
</g>
<!-- Order&#45;&gt;TrouserStyle -->
<g id="edge8" class="edge">
<title>Order&#45;&gt;TrouserStyle</title>
<path fill="none" stroke="#c0c827" d="M430.86,-67.14C436.66,-59.76 443.18,-51.46 449.16,-43.86"/>
<ellipse fill="none" stroke="#c0c827" cx="428.37" cy="-70.32" rx="4" ry="4"/>
<polygon fill="#c0c827" stroke="#c0c827" points="449.18,-43.82 458.9,-38.74 452.27,-39.89 455.36,-35.96 455.36,-35.96 455.36,-35.96 452.27,-39.89 451.82,-33.18 449.18,-43.82 449.18,-43.82"/>
</g>
<!-- Store&#45;&gt;Customer -->
<g id="edge13" class="edge">
<title>Store&#45;&gt;Customer</title>
<path fill="none" stroke="#dcef2b" d="M312.4,-212.23C305,-204.25 296.48,-195.09 288.83,-186.84"/>
<ellipse fill="none" stroke="#dcef2b" cx="315.18" cy="-215.22" rx="4" ry="4"/>
<polygon fill="#dcef2b" stroke="#dcef2b" points="288.62,-186.62 285.11,-176.23 285.22,-182.95 281.81,-179.29 281.81,-179.29 281.81,-179.29 285.22,-182.95 278.52,-182.35 288.62,-186.62 288.62,-186.62"/>
</g>
<!-- Store&#45;&gt;Employee -->
<g id="edge12" class="edge">
<title>Store&#45;&gt;Employee</title>
<path fill="none" stroke="#c8bd42" d="M354.43,-213.35C364.56,-204.59 376.54,-194.24 386.99,-185.21"/>
<ellipse fill="none" stroke="#c8bd42" cx="351.11" cy="-216.22" rx="4" ry="4"/>
<polygon fill="#c8bd42" stroke="#c8bd42" points="387.06,-185.14 397.57,-182.01 390.85,-181.88 394.63,-178.61 394.63,-178.61 394.63,-178.61 390.85,-181.88 391.69,-175.2 387.06,-185.14 387.06,-185.14"/>
</g>
<!-- Store&#45;&gt;Order -->
<g id="edge14" class="edge">
<title>Store&#45;&gt;Order</title>
<path fill="none" stroke="#4b6d03" d="M335.79,-205.76C339.46,-187.31 346.11,-162.95 357.69,-144 365.36,-131.44 376.78,-119.89 387.3,-110.8"/>
<polygon fill="#4b6d03" stroke="#4b6d03" points="335.74,-206.01 329.53,-215.04 334.85,-210.93 333.96,-215.85 333.96,-215.85 333.96,-215.85 334.85,-210.93 338.39,-216.65 335.74,-206.01 335.74,-206.01"/>
<polygon fill="#4b6d03" stroke="#4b6d03" points="387.39,-110.73 397.97,-107.82 391.25,-107.54 395.1,-104.35 395.1,-104.35 395.1,-104.35 391.25,-107.54 392.24,-100.89 387.39,-110.73 387.39,-110.73"/>
</g>
<!-- ActiveStorage::Attachment -->
<g id="node11" class="node">
<title>ActiveStorage::Attachment</title>
<ellipse fill="none" stroke="black" cx="504.69" cy="-324.5" rx="106.73" ry="18"/>
<text text-anchor="middle" x="504.69" y="-320.3" font-family="Times,serif" font-size="14.00">ActiveStorage::Attachment</text>
</g>
<!-- ActiveStorage::Blob::Analyzable -->
<g id="node12" class="node">
<title>ActiveStorage::Blob::Analyzable</title>
<polygon fill="none" stroke="black" stroke-dasharray="1,5" points="831.8,-342.5 629.57,-342.5 629.57,-306.5 831.8,-306.5 831.8,-342.5"/>
<text text-anchor="middle" x="730.69" y="-320.3" font-family="Times,serif" font-size="14.00">ActiveStorage::Blob::Analyzable</text>
</g>
<!-- ActiveStorage::Blob::Identifiable -->
<g id="node13" class="node">
<title>ActiveStorage::Blob::Identifiable</title>
<polygon fill="none" stroke="black" stroke-dasharray="1,5" points="1052.82,-342.5 850.56,-342.5 850.56,-306.5 1052.82,-306.5 1052.82,-342.5"/>
<text text-anchor="middle" x="951.69" y="-320.3" font-family="Times,serif" font-size="14.00">ActiveStorage::Blob::Identifiable</text>
</g>
<!-- ActiveStorage::Blob::Representable -->
<g id="node14" class="node">
<title>ActiveStorage::Blob::Representable</title>
<polygon fill="none" stroke="black" stroke-dasharray="1,5" points="1288.85,-342.5 1070.52,-342.5 1070.52,-306.5 1288.85,-306.5 1288.85,-342.5"/>
<text text-anchor="middle" x="1179.69" y="-320.3" font-family="Times,serif" font-size="14.00">ActiveStorage::Blob::Representable</text>
</g>
<!-- ActiveStorage::Blob -->
<g id="node15" class="node">
<title>ActiveStorage::Blob</title>
<ellipse fill="none" stroke="black" cx="1389.69" cy="-324.5" rx="82.61" ry="18"/>
<text text-anchor="middle" x="1389.69" y="-320.3" font-family="Times,serif" font-size="14.00">ActiveStorage::Blob</text>
</g>
<!-- ActiveStorage::Current -->
<g id="node16" class="node">
<title>ActiveStorage::Current</title>
<polygon fill="none" stroke="black" points="1692.82,-252 1546.56,-252 1546.56,-216 1692.82,-216 1692.82,-252"/>
<text text-anchor="middle" x="1619.69" y="-229.8" font-family="Times,serif" font-size="14.00">ActiveStorage::Current</text>
</g>
<!-- ActiveStorage::Filename -->
<g id="node17" class="node">
<title>ActiveStorage::Filename</title>
<polygon fill="none" stroke="black" points="1922.65,-342.5 1766.73,-342.5 1766.73,-306.5 1922.65,-306.5 1922.65,-342.5"/>
<text text-anchor="middle" x="1844.69" y="-320.3" font-family="Times,serif" font-size="14.00">ActiveStorage::Filename</text>
</g>
<!-- ActiveStorage::Preview -->
<g id="node18" class="node">
<title>ActiveStorage::Preview</title>
<polygon fill="none" stroke="black" points="2090.43,-342.5 1940.95,-342.5 1940.95,-306.5 2090.43,-306.5 2090.43,-342.5"/>
<text text-anchor="middle" x="2015.69" y="-320.3" font-family="Times,serif" font-size="14.00">ActiveStorage::Preview</text>
</g>
<!-- ActiveStorage::Variant -->
<g id="node19" class="node">
<title>ActiveStorage::Variant</title>
<polygon fill="none" stroke="black" points="2252.98,-342.5 2108.4,-342.5 2108.4,-306.5 2252.98,-306.5 2252.98,-342.5"/>
<text text-anchor="middle" x="2180.69" y="-320.3" font-family="Times,serif" font-size="14.00">ActiveStorage::Variant</text>
</g>
<!-- ActiveStorage::Variation -->
<g id="node20" class="node">
<title>ActiveStorage::Variation</title>
<polygon fill="none" stroke="black" points="2426.37,-342.5 2271.01,-342.5 2271.01,-306.5 2426.37,-306.5 2426.37,-342.5"/>
<text text-anchor="middle" x="2348.69" y="-320.3" font-family="Times,serif" font-size="14.00">ActiveStorage::Variation</text>
</g>
<!-- ActionMailbox::InboundEmail::Incineratable::Incineration -->
<g id="node21" class="node">
<title>ActionMailbox::InboundEmail::Incineratable::Incineration</title>
<polygon fill="none" stroke="black" points="2789.36,-342.5 2444.01,-342.5 2444.01,-306.5 2789.36,-306.5 2789.36,-342.5"/>
<text text-anchor="middle" x="2616.69" y="-320.3" font-family="Times,serif" font-size="14.00">ActionMailbox::InboundEmail::Incineratable::Incineration</text>
</g>
<!-- ActionMailbox::InboundEmail::Incineratable -->
<g id="node22" class="node">
<title>ActionMailbox::InboundEmail::Incineratable</title>
<polygon fill="none" stroke="black" stroke-dasharray="1,5" points="3077.95,-342.5 2807.42,-342.5 2807.42,-306.5 3077.95,-306.5 3077.95,-342.5"/>
<text text-anchor="middle" x="2942.69" y="-320.3" font-family="Times,serif" font-size="14.00">ActionMailbox::InboundEmail::Incineratable</text>
</g>
<!-- ActionMailbox::InboundEmail::MessageId -->
<g id="node23" class="node">
<title>ActionMailbox::InboundEmail::MessageId</title>
<polygon fill="none" stroke="black" stroke-dasharray="1,5" points="3353.54,-342.5 3095.84,-342.5 3095.84,-306.5 3353.54,-306.5 3353.54,-342.5"/>
<text text-anchor="middle" x="3224.69" y="-320.3" font-family="Times,serif" font-size="14.00">ActionMailbox::InboundEmail::MessageId</text>
</g>
<!-- ActionMailbox::InboundEmail::Routable -->
<g id="node24" class="node">
<title>ActionMailbox::InboundEmail::Routable</title>
<polygon fill="none" stroke="black" stroke-dasharray="1,5" points="3619.43,-342.5 3371.94,-342.5 3371.94,-306.5 3619.43,-306.5 3619.43,-342.5"/>
<text text-anchor="middle" x="3495.69" y="-320.3" font-family="Times,serif" font-size="14.00">ActionMailbox::InboundEmail::Routable</text>
</g>
<!-- ActionMailbox::InboundEmail -->
<g id="node25" class="node">
<title>ActionMailbox::InboundEmail</title>
<ellipse fill="none" stroke="black" cx="3757.69" cy="-324.5" rx="119.81" ry="18"/>
<text text-anchor="middle" x="3757.69" y="-320.3" font-family="Times,serif" font-size="14.00">ActionMailbox::InboundEmail</text>
</g>
<!-- ActionText::RichText -->
<g id="node26" class="node">
<title>ActionText::RichText</title>
<ellipse fill="none" stroke="black" cx="3982.69" cy="-324.5" rx="86.94" ry="18"/>
<text text-anchor="middle" x="3982.69" y="-320.3" font-family="Times,serif" font-size="14.00">ActionText::RichText</text>
</g>
<!-- ActiveSupport::CurrentAttributes -->
<g id="node27" class="node">
<title>ActiveSupport::CurrentAttributes</title>
<ellipse fill="none" stroke="black" cx="1619.69" cy="-324.5" rx="128.97" ry="18"/>
<text text-anchor="middle" x="1619.69" y="-320.3" font-family="Times,serif" font-size="14.00">ActiveSupport::CurrentAttributes</text>
</g>
<!-- ActiveSupport::CurrentAttributes&#45;&gt;ActiveStorage::Current -->
<g id="edge17" class="edge">
<title>ActiveSupport::CurrentAttributes&#45;&gt;ActiveStorage::Current</title>
<path fill="none" stroke="black" d="M1619.69,-306.44C1619.69,-290.76 1619.69,-267.67 1619.69,-252.01"/>
</g>
</g>
</svg>
