<?xml version="1.0" encoding="UTF-8" standalone="no"?>
<!DOCTYPE svg PUBLIC "-//W3C//DTD SVG 1.1//EN"
 "http://www.w3.org/Graphics/SVG/1.1/DTD/svg11.dtd">
<!-- Generated by graphviz version 2.43.0 (0)
 -->
<!-- Title: models_diagram Pages: 1 -->
<svg width="3246pt" height="1539pt"
 viewBox="0.00 0.00 3246.27 1539.00" xmlns="http://www.w3.org/2000/svg" xmlns:xlink="http://www.w3.org/1999/xlink">
<g id="graph0" class="graph" transform="scale(1 1) rotate(0) translate(4 1535)">
<title>models_diagram</title>
<polygon fill="transparent" stroke="transparent" points="-4,4 -4,-1535 3242.27,-1535 3242.27,4 -4,4"/>
<!-- _diagram_info -->
<g id="node1" class="node">
<title>_diagram_info</title>
<text text-anchor="start" x="41.71" y="-1516.6" font-family="Times,serif" font-size="13.00">Models diagram</text>
<text text-anchor="start" x="41.71" y="-1503.6" font-family="Times,serif" font-size="13.00">Date: Dec 06 2019 &#45; 21:09</text>
<text text-anchor="start" x="41.71" y="-1490.6" font-family="Times,serif" font-size="13.00">Migration version: 20190917080632</text>
<text text-anchor="start" x="41.71" y="-1477.6" font-family="Times,serif" font-size="13.00">Generated by RailRoady 1.5.3</text>
<text text-anchor="start" x="41.71" y="-1464.6" font-family="Times,serif" font-size="13.00">http://railroady.prestonlee.com</text>
</g>
<!-- ApplicationRecord -->
<g id="node2" class="node">
<title>ApplicationRecord</title>
<ellipse fill="none" stroke="black" cx="336.4" cy="-1494.5" rx="77.29" ry="18"/>
<text text-anchor="middle" x="336.4" y="-1490.3" font-family="Times,serif" font-size="14.00">ApplicationRecord</text>
</g>
<!-- Customer -->
<g id="node3" class="node">
<title>Customer</title>
<path fill="none" stroke="black" d="M228.9,-946.5C228.9,-946.5 365.89,-946.5 365.89,-946.5 371.89,-946.5 377.89,-952.5 377.89,-958.5 377.89,-958.5 377.89,-1146.5 377.89,-1146.5 377.89,-1152.5 371.89,-1158.5 365.89,-1158.5 365.89,-1158.5 228.9,-1158.5 228.9,-1158.5 222.9,-1158.5 216.9,-1152.5 216.9,-1146.5 216.9,-1146.5 216.9,-958.5 216.9,-958.5 216.9,-952.5 222.9,-946.5 228.9,-946.5"/>
<text text-anchor="middle" x="297.4" y="-1143.3" font-family="Times,serif" font-size="14.00">Customer</text>
<polyline fill="none" stroke="black" points="216.9,-1136.5 377.89,-1136.5 "/>
<text text-anchor="start" x="224.9" y="-1121.3" font-family="Times,serif" font-size="14.00">updated_at :datetime(6)</text>
<text text-anchor="start" x="224.9" y="-1107.3" font-family="Times,serif" font-size="14.00">customer_name :varchar</text>
<text text-anchor="start" x="224.9" y="-1093.3" font-family="Times,serif" font-size="14.00">contact_number :varchar</text>
<text text-anchor="start" x="224.9" y="-1079.3" font-family="Times,serif" font-size="14.00">email :varchar</text>
<text text-anchor="start" x="224.9" y="-1065.3" font-family="Times,serif" font-size="14.00">address :text</text>
<text text-anchor="start" x="224.9" y="-1051.3" font-family="Times,serif" font-size="14.00">date_of_birth :date</text>
<text text-anchor="start" x="224.9" y="-1037.3" font-family="Times,serif" font-size="14.00">date_of_anniversary :date</text>
<text text-anchor="start" x="224.9" y="-1023.3" font-family="Times,serif" font-size="14.00">picture :varchar</text>
<text text-anchor="start" x="224.9" y="-1009.3" font-family="Times,serif" font-size="14.00">profile :varchar</text>
<text text-anchor="start" x="224.9" y="-995.3" font-family="Times,serif" font-size="14.00">sales_person :integer</text>
<text text-anchor="start" x="224.9" y="-981.3" font-family="Times,serif" font-size="14.00">store_id :integer</text>
<text text-anchor="start" x="224.9" y="-967.3" font-family="Times,serif" font-size="14.00">created_at :datetime(6)</text>
<text text-anchor="start" x="224.9" y="-953.3" font-family="Times,serif" font-size="14.00">id :integer</text>
</g>
<!-- ApplicationRecord&#45;&gt;Customer -->
<g id="edge3" class="edge">
<title>ApplicationRecord&#45;&gt;Customer</title>
<path fill="none" stroke="black" d="M323.06,-1476.76C312.98,-1462.97 299.95,-1442.42 294.4,-1422 270.89,-1335.57 273.99,-1233.47 281.63,-1158.68"/>
</g>
<!-- CustomerMeasurement -->
<g id="node4" class="node">
<title>CustomerMeasurement</title>
<path fill="none" stroke="black" d="M187.8,-473.5C187.8,-473.5 415,-473.5 415,-473.5 421,-473.5 427,-479.5 427,-485.5 427,-485.5 427,-897.5 427,-897.5 427,-903.5 421,-909.5 415,-909.5 415,-909.5 187.8,-909.5 187.8,-909.5 181.8,-909.5 175.8,-903.5 175.8,-897.5 175.8,-897.5 175.8,-485.5 175.8,-485.5 175.8,-479.5 181.8,-473.5 187.8,-473.5"/>
<text text-anchor="middle" x="301.4" y="-894.3" font-family="Times,serif" font-size="14.00">CustomerMeasurement</text>
<polyline fill="none" stroke="black" points="175.8,-887.5 427,-887.5 "/>
<text text-anchor="start" x="183.8" y="-872.3" font-family="Times,serif" font-size="14.00">updated_at :datetime(6)</text>
<text text-anchor="start" x="183.8" y="-858.3" font-family="Times,serif" font-size="14.00">upper_body_back_shape :varchar</text>
<text text-anchor="start" x="183.8" y="-844.3" font-family="Times,serif" font-size="14.00">upper_body_stomach :varchar</text>
<text text-anchor="start" x="183.8" y="-830.3" font-family="Times,serif" font-size="14.00">upper_body_shoulder :varchar</text>
<text text-anchor="start" x="183.8" y="-816.3" font-family="Times,serif" font-size="14.00">lower_body_posture :varchar</text>
<text text-anchor="start" x="183.8" y="-802.3" font-family="Times,serif" font-size="14.00">jacket_or_shirt_length :decimal</text>
<text text-anchor="start" x="183.8" y="-788.3" font-family="Times,serif" font-size="14.00">jacket_or_shirt_shoulder :decimal</text>
<text text-anchor="start" x="183.8" y="-774.3" font-family="Times,serif" font-size="14.00">jacket_or_shirt_sleeve_length :decimal</text>
<text text-anchor="start" x="183.8" y="-760.3" font-family="Times,serif" font-size="14.00">jacket_or_shirt_chest :decimal</text>
<text text-anchor="start" x="183.8" y="-746.3" font-family="Times,serif" font-size="14.00">jacket_or_shirt_waist :decimal</text>
<text text-anchor="start" x="183.8" y="-732.3" font-family="Times,serif" font-size="14.00">jacket_or_shirt_neck :decimal</text>
<text text-anchor="start" x="183.8" y="-718.3" font-family="Times,serif" font-size="14.00">jacket_or_shirt_hip :decimal</text>
<text text-anchor="start" x="183.8" y="-704.3" font-family="Times,serif" font-size="14.00">jacket_or_shirt_hale_back :decimal</text>
<text text-anchor="start" x="183.8" y="-690.3" font-family="Times,serif" font-size="14.00">jacket_or_shirt_cross_back :decimal</text>
<text text-anchor="start" x="183.8" y="-676.3" font-family="Times,serif" font-size="14.00">jacket_or_shirt_bicep :decimal</text>
<text text-anchor="start" x="183.8" y="-662.3" font-family="Times,serif" font-size="14.00">jacket_or_shirt_cross_front :decimal</text>
<text text-anchor="start" x="183.8" y="-648.3" font-family="Times,serif" font-size="14.00">jacket_or_shirt_arm_hole_round :decimal</text>
<text text-anchor="start" x="183.8" y="-634.3" font-family="Times,serif" font-size="14.00">trouser_length :decimal</text>
<text text-anchor="start" x="183.8" y="-620.3" font-family="Times,serif" font-size="14.00">trouser_crotch :decimal</text>
<text text-anchor="start" x="183.8" y="-606.3" font-family="Times,serif" font-size="14.00">trouser_inseam :decimal</text>
<text text-anchor="start" x="183.8" y="-592.3" font-family="Times,serif" font-size="14.00">trouser_waist :decimal</text>
<text text-anchor="start" x="183.8" y="-578.3" font-family="Times,serif" font-size="14.00">trouser_hip :decimal</text>
<text text-anchor="start" x="183.8" y="-564.3" font-family="Times,serif" font-size="14.00">trouser_knee :decimal</text>
<text text-anchor="start" x="183.8" y="-550.3" font-family="Times,serif" font-size="14.00">trouser_thigh :decimal</text>
<text text-anchor="start" x="183.8" y="-536.3" font-family="Times,serif" font-size="14.00">trouser_bottom :decimal</text>
<text text-anchor="start" x="183.8" y="-522.3" font-family="Times,serif" font-size="14.00">trouser_f_low :decimal</text>
<text text-anchor="start" x="183.8" y="-508.3" font-family="Times,serif" font-size="14.00">customer_id :integer</text>
<text text-anchor="start" x="183.8" y="-494.3" font-family="Times,serif" font-size="14.00">created_at :datetime(6)</text>
<text text-anchor="start" x="183.8" y="-480.3" font-family="Times,serif" font-size="14.00">id :integer</text>
</g>
<!-- ApplicationRecord&#45;&gt;CustomerMeasurement -->
<g id="edge4" class="edge">
<title>ApplicationRecord&#45;&gt;CustomerMeasurement</title>
<path fill="none" stroke="black" d="M317.08,-1476.89C302.69,-1463.48 283.65,-1443.38 272.4,-1422 172.99,-1233.1 171.06,-1156.17 208.4,-946 210.53,-934 213.19,-921.82 216.24,-909.63"/>
</g>
<!-- Employee -->
<g id="node5" class="node">
<title>Employee</title>
<path fill="none" stroke="black" d="M445.06,-967.5C445.06,-967.5 579.74,-967.5 579.74,-967.5 585.74,-967.5 591.74,-973.5 591.74,-979.5 591.74,-979.5 591.74,-1125.5 591.74,-1125.5 591.74,-1131.5 585.74,-1137.5 579.74,-1137.5 579.74,-1137.5 445.06,-1137.5 445.06,-1137.5 439.06,-1137.5 433.06,-1131.5 433.06,-1125.5 433.06,-1125.5 433.06,-979.5 433.06,-979.5 433.06,-973.5 439.06,-967.5 445.06,-967.5"/>
<text text-anchor="middle" x="512.4" y="-1122.3" font-family="Times,serif" font-size="14.00">Employee</text>
<polyline fill="none" stroke="black" points="433.06,-1115.5 591.74,-1115.5 "/>
<text text-anchor="start" x="441.06" y="-1100.3" font-family="Times,serif" font-size="14.00">updated_at :datetime(6)</text>
<text text-anchor="start" x="441.06" y="-1086.3" font-family="Times,serif" font-size="14.00">employee_name :varchar</text>
<text text-anchor="start" x="441.06" y="-1072.3" font-family="Times,serif" font-size="14.00">mobile :varchar</text>
<text text-anchor="start" x="441.06" y="-1058.3" font-family="Times,serif" font-size="14.00">password_digest :varchar</text>
<text text-anchor="start" x="441.06" y="-1044.3" font-family="Times,serif" font-size="14.00">role :varchar</text>
<text text-anchor="start" x="441.06" y="-1030.3" font-family="Times,serif" font-size="14.00">email :varchar</text>
<text text-anchor="start" x="441.06" y="-1016.3" font-family="Times,serif" font-size="14.00">aadhar_card_no :varchar</text>
<text text-anchor="start" x="441.06" y="-1002.3" font-family="Times,serif" font-size="14.00">store_id :integer</text>
<text text-anchor="start" x="441.06" y="-988.3" font-family="Times,serif" font-size="14.00">created_at :datetime(6)</text>
<text text-anchor="start" x="441.06" y="-974.3" font-family="Times,serif" font-size="14.00">id :integer</text>
</g>
<!-- ApplicationRecord&#45;&gt;Employee -->
<g id="edge5" class="edge">
<title>ApplicationRecord&#45;&gt;Employee</title>
<path fill="none" stroke="black" d="M373.31,-1478.57C420.49,-1459.33 496.56,-1427.65 500.4,-1422 557.09,-1338.44 548.47,-1217.94 533.5,-1137.75"/>
</g>
<!-- Order -->
<g id="node6" class="node">
<title>Order</title>
<path fill="none" stroke="black" d="M456.81,-550.5C456.81,-550.5 613.99,-550.5 613.99,-550.5 619.99,-550.5 625.99,-556.5 625.99,-562.5 625.99,-562.5 625.99,-820.5 625.99,-820.5 625.99,-826.5 619.99,-832.5 613.99,-832.5 613.99,-832.5 456.81,-832.5 456.81,-832.5 450.81,-832.5 444.81,-826.5 444.81,-820.5 444.81,-820.5 444.81,-562.5 444.81,-562.5 444.81,-556.5 450.81,-550.5 456.81,-550.5"/>
<text text-anchor="middle" x="535.4" y="-817.3" font-family="Times,serif" font-size="14.00">Order</text>
<polyline fill="none" stroke="black" points="444.81,-810.5 625.99,-810.5 "/>
<text text-anchor="start" x="452.81" y="-795.3" font-family="Times,serif" font-size="14.00">updated_at :datetime(6)</text>
<text text-anchor="start" x="452.81" y="-781.3" font-family="Times,serif" font-size="14.00">order_date :date</text>
<text text-anchor="start" x="452.81" y="-767.3" font-family="Times,serif" font-size="14.00">trail_date :date</text>
<text text-anchor="start" x="452.81" y="-753.3" font-family="Times,serif" font-size="14.00">trail_status :varchar</text>
<text text-anchor="start" x="452.81" y="-739.3" font-family="Times,serif" font-size="14.00">delivery_date :date</text>
<text text-anchor="start" x="452.81" y="-725.3" font-family="Times,serif" font-size="14.00">delivery_status :varchar</text>
<text text-anchor="start" x="452.81" y="-711.3" font-family="Times,serif" font-size="14.00">order_pictures :varchar</text>
<text text-anchor="start" x="452.81" y="-697.3" font-family="Times,serif" font-size="14.00">trail_pictures :varchar</text>
<text text-anchor="start" x="452.81" y="-683.3" font-family="Times,serif" font-size="14.00">remark :text</text>
<text text-anchor="start" x="452.81" y="-669.3" font-family="Times,serif" font-size="14.00">stitching_cost :integer</text>
<text text-anchor="start" x="452.81" y="-655.3" font-family="Times,serif" font-size="14.00">fabric_cost :integer</text>
<text text-anchor="start" x="452.81" y="-641.3" font-family="Times,serif" font-size="14.00">stitching_advance :integer</text>
<text text-anchor="start" x="452.81" y="-627.3" font-family="Times,serif" font-size="14.00">fabric_advance :integer</text>
<text text-anchor="start" x="452.81" y="-613.3" font-family="Times,serif" font-size="14.00">balance_clear_status :varchar</text>
<text text-anchor="start" x="452.81" y="-599.3" font-family="Times,serif" font-size="14.00">master_allocated :integer</text>
<text text-anchor="start" x="452.81" y="-585.3" font-family="Times,serif" font-size="14.00">customer_id :integer</text>
<text text-anchor="start" x="452.81" y="-571.3" font-family="Times,serif" font-size="14.00">created_at :datetime(6)</text>
<text text-anchor="start" x="452.81" y="-557.3" font-family="Times,serif" font-size="14.00">id :integer</text>
</g>
<!-- ApplicationRecord&#45;&gt;Order -->
<g id="edge9" class="edge">
<title>ApplicationRecord&#45;&gt;Order</title>
<path fill="none" stroke="black" d="M371.7,-1478.33C387.41,-1471.78 406.21,-1464.21 423.4,-1458 473.37,-1439.95 501.18,-1460.88 537.4,-1422 683.62,-1265.05 635.48,-996.45 586.16,-832.64"/>
</g>
<!-- OrderMeasurement -->
<g id="node7" class="node">
<title>OrderMeasurement</title>
<path fill="none" stroke="black" d="M36.8,-0.5C36.8,-0.5 264,-0.5 264,-0.5 270,-0.5 276,-6.5 276,-12.5 276,-12.5 276,-424.5 276,-424.5 276,-430.5 270,-436.5 264,-436.5 264,-436.5 36.8,-436.5 36.8,-436.5 30.8,-436.5 24.8,-430.5 24.8,-424.5 24.8,-424.5 24.8,-12.5 24.8,-12.5 24.8,-6.5 30.8,-0.5 36.8,-0.5"/>
<text text-anchor="middle" x="150.4" y="-421.3" font-family="Times,serif" font-size="14.00">OrderMeasurement</text>
<polyline fill="none" stroke="black" points="24.8,-414.5 276,-414.5 "/>
<text text-anchor="start" x="32.8" y="-399.3" font-family="Times,serif" font-size="14.00">updated_at :datetime(6)</text>
<text text-anchor="start" x="32.8" y="-385.3" font-family="Times,serif" font-size="14.00">upper_body_back_shape :varchar</text>
<text text-anchor="start" x="32.8" y="-371.3" font-family="Times,serif" font-size="14.00">upper_body_stomach :varchar</text>
<text text-anchor="start" x="32.8" y="-357.3" font-family="Times,serif" font-size="14.00">upper_body_shoulder :varchar</text>
<text text-anchor="start" x="32.8" y="-343.3" font-family="Times,serif" font-size="14.00">lower_body_posture :varchar</text>
<text text-anchor="start" x="32.8" y="-329.3" font-family="Times,serif" font-size="14.00">jacket_or_shirt_length :decimal</text>
<text text-anchor="start" x="32.8" y="-315.3" font-family="Times,serif" font-size="14.00">jacket_or_shirt_shoulder :decimal</text>
<text text-anchor="start" x="32.8" y="-301.3" font-family="Times,serif" font-size="14.00">jacket_or_shirt_sleeve_length :decimal</text>
<text text-anchor="start" x="32.8" y="-287.3" font-family="Times,serif" font-size="14.00">jacket_or_shirt_chest :decimal</text>
<text text-anchor="start" x="32.8" y="-273.3" font-family="Times,serif" font-size="14.00">jacket_or_shirt_waist :decimal</text>
<text text-anchor="start" x="32.8" y="-259.3" font-family="Times,serif" font-size="14.00">jacket_or_shirt_neck :decimal</text>
<text text-anchor="start" x="32.8" y="-245.3" font-family="Times,serif" font-size="14.00">jacket_or_shirt_hip :decimal</text>
<text text-anchor="start" x="32.8" y="-231.3" font-family="Times,serif" font-size="14.00">jacket_or_shirt_hale_back :decimal</text>
<text text-anchor="start" x="32.8" y="-217.3" font-family="Times,serif" font-size="14.00">jacket_or_shirt_cross_back :decimal</text>
<text text-anchor="start" x="32.8" y="-203.3" font-family="Times,serif" font-size="14.00">jacket_or_shirt_bicep :decimal</text>
<text text-anchor="start" x="32.8" y="-189.3" font-family="Times,serif" font-size="14.00">jacket_or_shirt_cross_front :decimal</text>
<text text-anchor="start" x="32.8" y="-175.3" font-family="Times,serif" font-size="14.00">jacket_or_shirt_arm_hole_round :decimal</text>
<text text-anchor="start" x="32.8" y="-161.3" font-family="Times,serif" font-size="14.00">trouser_length :decimal</text>
<text text-anchor="start" x="32.8" y="-147.3" font-family="Times,serif" font-size="14.00">trouser_crotch :decimal</text>
<text text-anchor="start" x="32.8" y="-133.3" font-family="Times,serif" font-size="14.00">trouser_inseam :decimal</text>
<text text-anchor="start" x="32.8" y="-119.3" font-family="Times,serif" font-size="14.00">trouser_waist :decimal</text>
<text text-anchor="start" x="32.8" y="-105.3" font-family="Times,serif" font-size="14.00">trouser_hip :decimal</text>
<text text-anchor="start" x="32.8" y="-91.3" font-family="Times,serif" font-size="14.00">trouser_knee :decimal</text>
<text text-anchor="start" x="32.8" y="-77.3" font-family="Times,serif" font-size="14.00">trouser_thigh :decimal</text>
<text text-anchor="start" x="32.8" y="-63.3" font-family="Times,serif" font-size="14.00">trouser_bottom :decimal</text>
<text text-anchor="start" x="32.8" y="-49.3" font-family="Times,serif" font-size="14.00">trouser_f_low :decimal</text>
<text text-anchor="start" x="32.8" y="-35.3" font-family="Times,serif" font-size="14.00">order_id :integer</text>
<text text-anchor="start" x="32.8" y="-21.3" font-family="Times,serif" font-size="14.00">created_at :datetime(6)</text>
<text text-anchor="start" x="32.8" y="-7.3" font-family="Times,serif" font-size="14.00">id :integer</text>
</g>
<!-- ApplicationRecord&#45;&gt;OrderMeasurement -->
<g id="edge10" class="edge">
<title>ApplicationRecord&#45;&gt;OrderMeasurement</title>
<path fill="none" stroke="black" d="M301.47,-1478.43C285.93,-1471.9 267.35,-1464.32 250.4,-1458 202.99,-1440.34 173.14,-1462.19 142.4,-1422 -74.19,-1138.86 1.71,-698.46 76.27,-436.54"/>
</g>
<!-- ShirtStyle -->
<g id="node8" class="node">
<title>ShirtStyle</title>
<path fill="none" stroke="black" d="M326.08,-98.5C326.08,-98.5 502.71,-98.5 502.71,-98.5 508.71,-98.5 514.71,-104.5 514.71,-110.5 514.71,-110.5 514.71,-326.5 514.71,-326.5 514.71,-332.5 508.71,-338.5 502.71,-338.5 502.71,-338.5 326.08,-338.5 326.08,-338.5 320.08,-338.5 314.08,-332.5 314.08,-326.5 314.08,-326.5 314.08,-110.5 314.08,-110.5 314.08,-104.5 320.08,-98.5 326.08,-98.5"/>
<text text-anchor="middle" x="414.4" y="-323.3" font-family="Times,serif" font-size="14.00">ShirtStyle</text>
<polyline fill="none" stroke="black" points="314.08,-316.5 514.71,-316.5 "/>
<text text-anchor="start" x="322.08" y="-301.3" font-family="Times,serif" font-size="14.00">updated_at :datetime(6)</text>
<text text-anchor="start" x="322.08" y="-287.3" font-family="Times,serif" font-size="14.00">style_for :text</text>
<text text-anchor="start" x="322.08" y="-273.3" font-family="Times,serif" font-size="14.00">style_for_fabric_picture :varchar</text>
<text text-anchor="start" x="322.08" y="-259.3" font-family="Times,serif" font-size="14.00">style :varchar</text>
<text text-anchor="start" x="322.08" y="-245.3" font-family="Times,serif" font-size="14.00">lapel :varchar</text>
<text text-anchor="start" x="322.08" y="-231.3" font-family="Times,serif" font-size="14.00">vent :varchar</text>
<text text-anchor="start" x="322.08" y="-217.3" font-family="Times,serif" font-size="14.00">pocket :varchar</text>
<text text-anchor="start" x="322.08" y="-203.3" font-family="Times,serif" font-size="14.00">fit :varchar</text>
<text text-anchor="start" x="322.08" y="-189.3" font-family="Times,serif" font-size="14.00">sleeve_placket :varchar</text>
<text text-anchor="start" x="322.08" y="-175.3" font-family="Times,serif" font-size="14.00">front_cut :varchar</text>
<text text-anchor="start" x="322.08" y="-161.3" font-family="Times,serif" font-size="14.00">related_pictures :varchar</text>
<text text-anchor="start" x="322.08" y="-147.3" font-family="Times,serif" font-size="14.00">master_comment :varchar</text>
<text text-anchor="start" x="322.08" y="-133.3" font-family="Times,serif" font-size="14.00">order_id :integer</text>
<text text-anchor="start" x="322.08" y="-119.3" font-family="Times,serif" font-size="14.00">created_at :datetime(6)</text>
<text text-anchor="start" x="322.08" y="-105.3" font-family="Times,serif" font-size="14.00">id :integer</text>
</g>
<!-- ApplicationRecord&#45;&gt;ShirtStyle -->
<g id="edge11" class="edge">
<title>ApplicationRecord&#45;&gt;ShirtStyle</title>
<path fill="none" stroke="black" d="M300.01,-1478.49C257.83,-1460.74 193.18,-1432.3 186.4,-1422 128.38,-1333.93 103.54,-557.69 166.4,-473 199.33,-428.63 241.9,-471.08 285.4,-437 318.32,-411.21 344.6,-374.5 364.62,-338.57"/>
</g>
<!-- Store -->
<g id="node9" class="node">
<title>Store</title>
<path fill="none" stroke="black" d="M315.69,-1195.5C315.69,-1195.5 479.11,-1195.5 479.11,-1195.5 485.11,-1195.5 491.11,-1201.5 491.11,-1207.5 491.11,-1207.5 491.11,-1409.5 491.11,-1409.5 491.11,-1415.5 485.11,-1421.5 479.11,-1421.5 479.11,-1421.5 315.69,-1421.5 315.69,-1421.5 309.69,-1421.5 303.69,-1415.5 303.69,-1409.5 303.69,-1409.5 303.69,-1207.5 303.69,-1207.5 303.69,-1201.5 309.69,-1195.5 315.69,-1195.5"/>
<text text-anchor="middle" x="397.4" y="-1406.3" font-family="Times,serif" font-size="14.00">Store</text>
<polyline fill="none" stroke="black" points="303.69,-1399.5 491.11,-1399.5 "/>
<text text-anchor="start" x="311.69" y="-1384.3" font-family="Times,serif" font-size="14.00">updated_at :datetime(6)</text>
<text text-anchor="start" x="311.69" y="-1370.3" font-family="Times,serif" font-size="14.00">store_name :varchar</text>
<text text-anchor="start" x="311.69" y="-1356.3" font-family="Times,serif" font-size="14.00">contact_person_name :varchar</text>
<text text-anchor="start" x="311.69" y="-1342.3" font-family="Times,serif" font-size="14.00">address :text</text>
<text text-anchor="start" x="311.69" y="-1328.3" font-family="Times,serif" font-size="14.00">contact_number :varchar</text>
<text text-anchor="start" x="311.69" y="-1314.3" font-family="Times,serif" font-size="14.00">email :varchar</text>
<text text-anchor="start" x="311.69" y="-1300.3" font-family="Times,serif" font-size="14.00">facebook_link :varchar</text>
<text text-anchor="start" x="311.69" y="-1286.3" font-family="Times,serif" font-size="14.00">whatsapp_number :varchar</text>
<text text-anchor="start" x="311.69" y="-1272.3" font-family="Times,serif" font-size="14.00">youtube_link :varchar</text>
<text text-anchor="start" x="311.69" y="-1258.3" font-family="Times,serif" font-size="14.00">instagram_link :varchar</text>
<text text-anchor="start" x="311.69" y="-1244.3" font-family="Times,serif" font-size="14.00">website :varchar</text>
<text text-anchor="start" x="311.69" y="-1230.3" font-family="Times,serif" font-size="14.00">logo :varchar</text>
<text text-anchor="start" x="311.69" y="-1216.3" font-family="Times,serif" font-size="14.00">created_at :datetime(6)</text>
<text text-anchor="start" x="311.69" y="-1202.3" font-family="Times,serif" font-size="14.00">id :integer</text>
</g>
<!-- ApplicationRecord&#45;&gt;Store -->
<g id="edge15" class="edge">
<title>ApplicationRecord&#45;&gt;Store</title>
<path fill="none" stroke="black" d="M342.03,-1476.52C346.45,-1463.17 353.04,-1443.31 360.14,-1421.9"/>
</g>
<!-- TrouserStyle -->
<g id="node10" class="node">
<title>TrouserStyle</title>
<path fill="none" stroke="black" d="M555.08,-98.5C555.08,-98.5 731.71,-98.5 731.71,-98.5 737.71,-98.5 743.71,-104.5 743.71,-110.5 743.71,-110.5 743.71,-326.5 743.71,-326.5 743.71,-332.5 737.71,-338.5 731.71,-338.5 731.71,-338.5 555.08,-338.5 555.08,-338.5 549.08,-338.5 543.08,-332.5 543.08,-326.5 543.08,-326.5 543.08,-110.5 543.08,-110.5 543.08,-104.5 549.08,-98.5 555.08,-98.5"/>
<text text-anchor="middle" x="643.4" y="-323.3" font-family="Times,serif" font-size="14.00">TrouserStyle</text>
<polyline fill="none" stroke="black" points="543.08,-316.5 743.71,-316.5 "/>
<text text-anchor="start" x="551.08" y="-301.3" font-family="Times,serif" font-size="14.00">updated_at :datetime(6)</text>
<text text-anchor="start" x="551.08" y="-287.3" font-family="Times,serif" font-size="14.00">style_for :text</text>
<text text-anchor="start" x="551.08" y="-273.3" font-family="Times,serif" font-size="14.00">style_for_fabric_picture :varchar</text>
<text text-anchor="start" x="551.08" y="-259.3" font-family="Times,serif" font-size="14.00">belt :varchar</text>
<text text-anchor="start" x="551.08" y="-245.3" font-family="Times,serif" font-size="14.00">pleat :varchar</text>
<text text-anchor="start" x="551.08" y="-231.3" font-family="Times,serif" font-size="14.00">pocket :varchar</text>
<text text-anchor="start" x="551.08" y="-217.3" font-family="Times,serif" font-size="14.00">back_pocket :varchar</text>
<text text-anchor="start" x="551.08" y="-203.3" font-family="Times,serif" font-size="14.00">bottom :varchar</text>
<text text-anchor="start" x="551.08" y="-189.3" font-family="Times,serif" font-size="14.00">loops :varchar</text>
<text text-anchor="start" x="551.08" y="-175.3" font-family="Times,serif" font-size="14.00">fit :varchar</text>
<text text-anchor="start" x="551.08" y="-161.3" font-family="Times,serif" font-size="14.00">related_pictures :varchar</text>
<text text-anchor="start" x="551.08" y="-147.3" font-family="Times,serif" font-size="14.00">master_comment :varchar</text>
<text text-anchor="start" x="551.08" y="-133.3" font-family="Times,serif" font-size="14.00">order_id :integer</text>
<text text-anchor="start" x="551.08" y="-119.3" font-family="Times,serif" font-size="14.00">created_at :datetime(6)</text>
<text text-anchor="start" x="551.08" y="-105.3" font-family="Times,serif" font-size="14.00">id :integer</text>
</g>
<!-- ApplicationRecord&#45;&gt;TrouserStyle -->
<g id="edge16" class="edge">
<title>ApplicationRecord&#45;&gt;TrouserStyle</title>
<path fill="none" stroke="black" d="M369.75,-1478.2C385.73,-1471.31 405.29,-1463.5 423.4,-1458 499.37,-1434.9 543.51,-1479.38 598.4,-1422 881.06,-1126.46 757.76,-579.8 684.06,-338.86"/>
</g>
<!-- Customer&#45;&gt;CustomerMeasurement -->
<g id="edge1" class="edge">
<title>Customer&#45;&gt;CustomerMeasurement</title>
<path fill="none" stroke="#572d29" d="M298.66,-938.12C298.74,-931.44 298.81,-924.62 298.89,-917.7"/>
<ellipse fill="none" stroke="#572d29" cx="298.62" cy="-942.21" rx="4" ry="4"/>
<ellipse fill="#572d29" stroke="#572d29" cx="298.94" cy="-913.54" rx="4" ry="4"/>
</g>
<!-- Customer&#45;&gt;Order -->
<g id="edge2" class="edge">
<title>Customer&#45;&gt;Order</title>
<path fill="none" stroke="#66953d" d="M383.87,-953.28C386.38,-950.81 388.9,-948.37 391.4,-946 409.98,-928.38 420.66,-930.21 436.4,-910 452.45,-889.39 466.59,-865.76 478.79,-841.85"/>
<ellipse fill="none" stroke="#66953d" cx="380.84" cy="-956.3" rx="4" ry="4"/>
<polygon fill="#66953d" stroke="#66953d" points="478.9,-841.62 487.4,-834.69 481.14,-837.15 483.37,-832.68 483.37,-832.68 483.37,-832.68 481.14,-837.15 479.35,-830.67 478.9,-841.62 478.9,-841.62"/>
</g>
<!-- Order&#45;&gt;OrderMeasurement -->
<g id="edge6" class="edge">
<title>Order&#45;&gt;OrderMeasurement</title>
<path fill="none" stroke="#09fa69" d="M489.65,-542.9C475.99,-516.75 458.55,-491.88 436.4,-473 390.45,-433.83 354.89,-471.59 305.4,-437 297.46,-431.45 289.78,-425.36 282.37,-418.84"/>
<ellipse fill="none" stroke="#09fa69" cx="491.59" cy="-546.74" rx="4" ry="4"/>
<ellipse fill="#09fa69" stroke="#09fa69" cx="279.18" cy="-415.96" rx="4" ry="4"/>
</g>
<!-- Order&#45;&gt;ShirtStyle -->
<g id="edge7" class="edge">
<title>Order&#45;&gt;ShirtStyle</title>
<path fill="none" stroke="#f58d5b" d="M497.38,-542.51C481.4,-480.32 462.99,-408.63 447.57,-348.62"/>
<ellipse fill="none" stroke="#f58d5b" cx="498.43" cy="-546.59" rx="4" ry="4"/>
<polygon fill="#f58d5b" stroke="#f58d5b" points="447.51,-348.39 449.38,-337.59 446.27,-343.55 445.02,-338.71 445.02,-338.71 445.02,-338.71 446.27,-343.55 440.66,-339.83 447.51,-348.39 447.51,-348.39"/>
</g>
<!-- Order&#45;&gt;TrouserStyle -->
<g id="edge8" class="edge">
<title>Order&#45;&gt;TrouserStyle</title>
<path fill="none" stroke="#91ee14" d="M569.33,-542.51C583.59,-480.32 600.03,-408.63 613.79,-348.62"/>
<ellipse fill="none" stroke="#91ee14" cx="568.4" cy="-546.56" rx="4" ry="4"/>
<polygon fill="#91ee14" stroke="#91ee14" points="613.83,-348.45 620.45,-339.71 614.95,-343.58 616.06,-338.71 616.06,-338.71 616.06,-338.71 614.95,-343.58 611.68,-337.7 613.83,-348.45 613.83,-348.45"/>
</g>
<!-- Store&#45;&gt;Customer -->
<g id="edge13" class="edge">
<title>Store&#45;&gt;Customer</title>
<path fill="none" stroke="#d6c16e" d="M350.31,-1187.88C347.72,-1181.31 345.12,-1174.7 342.53,-1168.15"/>
<ellipse fill="none" stroke="#d6c16e" cx="351.78" cy="-1191.63" rx="4" ry="4"/>
<polygon fill="#d6c16e" stroke="#d6c16e" points="342.43,-1167.88 342.95,-1156.93 340.6,-1163.23 338.77,-1158.58 338.77,-1158.58 338.77,-1158.58 340.6,-1163.23 334.58,-1160.22 342.43,-1167.88 342.43,-1167.88"/>
</g>
<!-- Store&#45;&gt;Employee -->
<g id="edge12" class="edge">
<title>Store&#45;&gt;Employee</title>
<path fill="none" stroke="#dc679c" d="M451.48,-1188.06C457.75,-1174.2 464.08,-1160.22 470.16,-1146.79"/>
<ellipse fill="none" stroke="#dc679c" cx="449.82" cy="-1191.71" rx="4" ry="4"/>
<polygon fill="#dc679c" stroke="#dc679c" points="470.21,-1146.69 478.43,-1139.44 472.27,-1142.14 474.33,-1137.58 474.33,-1137.58 474.33,-1137.58 472.27,-1142.14 470.23,-1135.73 470.21,-1146.69 470.21,-1146.69"/>
</g>
<!-- Store&#45;&gt;Order -->
<g id="edge14" class="edge">
<title>Store&#45;&gt;Order</title>
<path fill="none" stroke="#08b9eb" d="M396.34,-1184.92C398.25,-1114.16 405.01,-1024.01 424.4,-946 429.87,-924.01 446.37,-883.81 465.04,-841.8"/>
<polygon fill="#08b9eb" stroke="#08b9eb" points="396.33,-1185.21 391.59,-1195.1 396.21,-1190.21 396.09,-1195.21 396.09,-1195.21 396.09,-1195.21 396.21,-1190.21 400.59,-1195.32 396.33,-1185.21 396.33,-1185.21"/>
<polygon fill="#08b9eb" stroke="#08b9eb" points="465.11,-841.66 473.29,-834.36 467.15,-837.09 469.19,-832.53 469.19,-832.53 469.19,-832.53 467.15,-837.09 465.08,-830.69 465.11,-841.66 465.11,-841.66"/>
</g>
<!-- ActiveStorage::Blob::Analyzable -->
<g id="node11" class="node">
<title>ActiveStorage::Blob::Analyzable</title>
<polygon fill="none" stroke="black" stroke-dasharray="1,5" points="634.51,-1512.5 432.28,-1512.5 432.28,-1476.5 634.51,-1476.5 634.51,-1512.5"/>
<text text-anchor="middle" x="533.4" y="-1490.3" font-family="Times,serif" font-size="14.00">ActiveStorage::Blob::Analyzable</text>
</g>
<!-- ActiveStorage::Blob::Identifiable -->
<g id="node12" class="node">
<title>ActiveStorage::Blob::Identifiable</title>
<polygon fill="none" stroke="black" stroke-dasharray="1,5" points="855.53,-1512.5 653.27,-1512.5 653.27,-1476.5 855.53,-1476.5 855.53,-1512.5"/>
<text text-anchor="middle" x="754.4" y="-1490.3" font-family="Times,serif" font-size="14.00">ActiveStorage::Blob::Identifiable</text>
</g>
<!-- ActiveStorage::Blob::Representable -->
<g id="node13" class="node">
<title>ActiveStorage::Blob::Representable</title>
<polygon fill="none" stroke="black" stroke-dasharray="1,5" points="1091.56,-1512.5 873.23,-1512.5 873.23,-1476.5 1091.56,-1476.5 1091.56,-1512.5"/>
<text text-anchor="middle" x="982.4" y="-1490.3" font-family="Times,serif" font-size="14.00">ActiveStorage::Blob::Representable</text>
</g>
<!-- ActiveStorage::Current -->
<g id="node14" class="node">
<title>ActiveStorage::Current</title>
<polygon fill="none" stroke="black" points="1165.08,-1286.5 1165.08,-1330.5 1311.71,-1330.5 1311.71,-1286.5 1165.08,-1286.5"/>
<text text-anchor="middle" x="1238.4" y="-1315.3" font-family="Times,serif" font-size="14.00">ActiveStorage::Current</text>
<polyline fill="none" stroke="black" points="1165.08,-1308.5 1311.71,-1308.5 "/>
<text text-anchor="middle" x="1238.4" y="-1293.3" font-family="Times,serif" font-size="14.00"> </text>
</g>
<!-- ActiveStorage::Filename -->
<g id="node15" class="node">
<title>ActiveStorage::Filename</title>
<polygon fill="none" stroke="black" points="1385.42,-1472.5 1385.42,-1516.5 1541.38,-1516.5 1541.38,-1472.5 1385.42,-1472.5"/>
<text text-anchor="middle" x="1463.4" y="-1501.3" font-family="Times,serif" font-size="14.00">ActiveStorage::Filename</text>
<polyline fill="none" stroke="black" points="1385.42,-1494.5 1541.38,-1494.5 "/>
<text text-anchor="middle" x="1463.4" y="-1479.3" font-family="Times,serif" font-size="14.00"> </text>
</g>
<!-- ActiveStorage::Preview -->
<g id="node16" class="node">
<title>ActiveStorage::Preview</title>
<polygon fill="none" stroke="black" points="1559.53,-1472.5 1559.53,-1516.5 1709.27,-1516.5 1709.27,-1472.5 1559.53,-1472.5"/>
<text text-anchor="middle" x="1634.4" y="-1501.3" font-family="Times,serif" font-size="14.00">ActiveStorage::Preview</text>
<polyline fill="none" stroke="black" points="1559.53,-1494.5 1709.27,-1494.5 "/>
<text text-anchor="middle" x="1634.4" y="-1479.3" font-family="Times,serif" font-size="14.00"> </text>
</g>
<!-- ActiveStorage::Variant -->
<g id="node17" class="node">
<title>ActiveStorage::Variant</title>
<polygon fill="none" stroke="black" points="1727.25,-1472.5 1727.25,-1516.5 1871.54,-1516.5 1871.54,-1472.5 1727.25,-1472.5"/>
<text text-anchor="middle" x="1799.4" y="-1501.3" font-family="Times,serif" font-size="14.00">ActiveStorage::Variant</text>
<polyline fill="none" stroke="black" points="1727.25,-1494.5 1871.54,-1494.5 "/>
<text text-anchor="middle" x="1799.4" y="-1479.3" font-family="Times,serif" font-size="14.00"> </text>
</g>
<!-- ActiveStorage::Variation -->
<g id="node18" class="node">
<title>ActiveStorage::Variation</title>
<polygon fill="none" stroke="black" points="1889.81,-1472.5 1889.81,-1516.5 2044.99,-1516.5 2044.99,-1472.5 1889.81,-1472.5"/>
<text text-anchor="middle" x="1967.4" y="-1501.3" font-family="Times,serif" font-size="14.00">ActiveStorage::Variation</text>
<polyline fill="none" stroke="black" points="1889.81,-1494.5 2044.99,-1494.5 "/>
<text text-anchor="middle" x="1967.4" y="-1479.3" font-family="Times,serif" font-size="14.00"> </text>
</g>
<!-- ActionMailbox::InboundEmail::Incineratable::Incineration -->
<g id="node19" class="node">
<title>ActionMailbox::InboundEmail::Incineratable::Incineration</title>
<polygon fill="none" stroke="black" points="2062.56,-1472.5 2062.56,-1516.5 2408.24,-1516.5 2408.24,-1472.5 2062.56,-1472.5"/>
<text text-anchor="middle" x="2235.4" y="-1501.3" font-family="Times,serif" font-size="14.00">ActionMailbox::InboundEmail::Incineratable::Incineration</text>
<polyline fill="none" stroke="black" points="2062.56,-1494.5 2408.24,-1494.5 "/>
<text text-anchor="middle" x="2235.4" y="-1479.3" font-family="Times,serif" font-size="14.00"> </text>
</g>
<!-- ActionMailbox::InboundEmail::Incineratable -->
<g id="node20" class="node">
<title>ActionMailbox::InboundEmail::Incineratable</title>
<polygon fill="none" stroke="black" stroke-dasharray="1,5" points="2696.66,-1512.5 2426.14,-1512.5 2426.14,-1476.5 2696.66,-1476.5 2696.66,-1512.5"/>
<text text-anchor="middle" x="2561.4" y="-1490.3" font-family="Times,serif" font-size="14.00">ActionMailbox::InboundEmail::Incineratable</text>
</g>
<!-- ActionMailbox::InboundEmail::MessageId -->
<g id="node21" class="node">
<title>ActionMailbox::InboundEmail::MessageId</title>
<polygon fill="none" stroke="black" stroke-dasharray="1,5" points="2972.25,-1512.5 2714.55,-1512.5 2714.55,-1476.5 2972.25,-1476.5 2972.25,-1512.5"/>
<text text-anchor="middle" x="2843.4" y="-1490.3" font-family="Times,serif" font-size="14.00">ActionMailbox::InboundEmail::MessageId</text>
</g>
<!-- ActionMailbox::InboundEmail::Routable -->
<g id="node22" class="node">
<title>ActionMailbox::InboundEmail::Routable</title>
<polygon fill="none" stroke="black" stroke-dasharray="1,5" points="3238.14,-1512.5 2990.65,-1512.5 2990.65,-1476.5 3238.14,-1476.5 3238.14,-1512.5"/>
<text text-anchor="middle" x="3114.4" y="-1490.3" font-family="Times,serif" font-size="14.00">ActionMailbox::InboundEmail::Routable</text>
</g>
<!-- ActiveSupport::CurrentAttributes -->
<g id="node23" class="node">
<title>ActiveSupport::CurrentAttributes</title>
<ellipse fill="none" stroke="black" cx="1238.4" cy="-1494.5" rx="128.97" ry="18"/>
<text text-anchor="middle" x="1238.4" y="-1490.3" font-family="Times,serif" font-size="14.00">ActiveSupport::CurrentAttributes</text>
</g>
<!-- ActiveSupport::CurrentAttributes&#45;&gt;ActiveStorage::Current -->
<g id="edge17" class="edge">
<title>ActiveSupport::CurrentAttributes&#45;&gt;ActiveStorage::Current</title>
<path fill="none" stroke="black" d="M1238.4,-1476.19C1238.4,-1442.28 1238.4,-1367.24 1238.4,-1330.54"/>
</g>
</g>
</svg>
